<?xml version="1.0" encoding="UTF-8" standalone="no"?>
<svg
   xmlns:dc="http://purl.org/dc/elements/1.1/"
   xmlns:cc="http://creativecommons.org/ns#"
   xmlns:rdf="http://www.w3.org/1999/02/22-rdf-syntax-ns#"
   xmlns:svg="http://www.w3.org/2000/svg"
   xmlns="http://www.w3.org/2000/svg"
   version="1.1"
   id="svg11050"
   viewBox="0 0 1859.2446 1392.7281"
   height="393.05881mm"
   width="524.72015mm">
  <defs
     id="defs11052" />
  <metadata
     id="metadata11055">
    <rdf:RDF>
      <cc:Work
         rdf:about="">
        <dc:format>image/svg+xml</dc:format>
        <dc:type
           rdf:resource="http://purl.org/dc/dcmitype/StillImage" />
        <dc:title></dc:title>
      </cc:Work>
    </rdf:RDF>
  </metadata>
  <g
     transform="translate(168.46379,326.5891)"
     id="layer1">
    <g
       id="g11763">
      <path
         style="opacity:0.16300001;fill:#77a6eb;fill-opacity:1;fill-rule:evenodd;stroke:#000000;stroke-width:3;stroke-linecap:round;stroke-linejoin:round;stroke-miterlimit:4;stroke-dasharray:none;stroke-opacity:1"
         d="m -85.937244,-266.16073 1325.889044,-7.36605 29.4641,989.50604 -1301.335454,-68.7498 -49.10699,-9.8214 z"
         id="path11689" />
      <g
         id="g11724"
         transform="translate(238.49113,-1263.3117)">
        <path
           id="path11714"
           d="m 222.02045,1224.2146 -26.68515,9.6066 -28.81996,17.0785 -20.28071,-10.674 -21.34812,0 -10.67406,5.337 -10.67406,30.9548 -7.471847,12.8088 2.134812,11.7415 8.539245,-2.1348 17.0785,-7.4718 10.67406,2.1348 -3.20222,13.8762 -4.26962,5.3371 -4.26963,10.674 0,11.7415 0,6.4044 -21.34812,17.0785 -17.078493,20.2808 -8.539249,29.8873 -3.202218,54.4377 7.471842,23.483 16.011091,-2.1349 21.348117,-22.4155 25.61775,29.8874 34.15699,14.9437 22.41553,-44.8311 16.01109,-40.5614 -14.94369,-14.9437 -23.48293,-13.8763 -20.28071,-39.494 10.67406,-16.0111 14.94368,-1.0674 1.06741,24.5503 13.87628,4.2697 11.74146,-3.2022 11.74147,-7.4719 0,-38.4266 -1.06741,-25.6177 11.74147,-19.2134 0,-25.6177 1.06741,-8.5393 z"
           style="fill:#db7446;fill-opacity:1;fill-rule:evenodd;stroke:none;stroke-width:1px;stroke-linecap:butt;stroke-linejoin:miter;stroke-opacity:1" />
        <path
           id="path11712"
           d="m 167.44854,1511.8755 c -1.65,-0.4198 -4.89139,-0.8166 -7.20309,-0.8817 -3.5223,-0.099 -5.0613,-0.8878 -9.5,-4.8683 -6.4667,-5.799 -12.3518,-11.8704 -16.1454,-16.6563 -1.5667,-1.9765 -3.606,-3.5937 -4.5319,-3.5937 -1.099,0 -1.7595,-0.9195 -1.9026,-2.6489 -0.2472,-2.9863 -2.0197,-5.5911 -3.2762,-4.8145 -0.7877,0.4869 -2.9232,-5.5649 -2.9352,-8.318 0,-0.7047 -0.6806,-1.5404 -1.5056,-1.857 -0.825,-0.3165 -1.5,-1.2809 -1.5,-2.1429 0,-3.5175 -4.9336,3.2381 -8.6548,11.851 -2.9491,6.8258 -4.3002,8.9035 -5.7976,8.9151 -1.0738,0.01 -3.4622,1.4777 -5.307505,3.2652 -2.9966,2.9027 -3.9543,3.244 -8.9616,3.194 -5.299,-0.053 -5.811,-0.2864 -9.3338,-4.2561 -2.1249,-2.3944 -3.925,-5.5947 -4.1872,-7.444 -0.8315,-5.8654 -2.9016,-13.1773 -4.863,-17.1768 -1.3074,-2.666 -1.6011,-4.2605 -0.9116,-4.95 1.3967,-1.3967 1.2833,-7.9509 -0.1627,-9.3969 -0.9064,-0.9064 -0.8791,-1.7417 0.118,-3.6046 0.7137,-1.3337 1.043,-2.837 0.7316,-3.3408 -0.877,-1.4191 1.3182,-21.4759 2.6474,-24.1884 0.8847,-1.8054 0.8934,-2.5109 0.035,-2.7994 -1.3439,-0.4515 -0.6422,-8.0781 0.9258,-10.0612 0.554,-0.7007 0.7362,-1.5453 0.4048,-1.8767 -0.3315,-0.3315 0.031,-1.8287 0.8062,-3.3271 1.0053,-1.9439 1.1008,-3.0326 0.3334,-3.8 -0.7675,-0.7674 -0.4663,-2.0615 1.0512,-4.5168 1.1697,-1.8927 2.1268,-4.2232 2.1268,-5.1789 0,-0.9556 1.125,-3.0746 2.5,-4.7087 1.375,-1.634 2.5,-3.669 2.5,-4.5222 0,-1.9449 11.2086,-15.307 25.250005,-30.1013 9.725,-10.2464 10.75,-11.6823 10.75,-15.0602 0,-2.0536 0.5466,-4.2804 1.2146,-4.9484 0.668,-0.6681 1.4703,-3.8896 1.7829,-7.1589 0.5196,-5.4348 0.394,-5.9693 -1.4646,-6.2355 -1.9113,-0.2737 -1.8733,-0.4322 0.6363,-2.6512 1.4681,-1.298 2.9392,-3.4355 3.2691,-4.75 0.3299,-1.3144 1.0412,-2.3899 1.5808,-2.3899 0.5395,0 0.9809,-1.2021 0.9809,-2.6712 0,-1.4692 0.7544,-3.5049 1.6764,-4.5237 1.0935,-1.2083 1.336,-2.1927 0.6974,-2.8313 -1.4444,-1.4443 -11.6812,0.6508 -19.3738,3.9652 -6.9487,2.9939 -15.934705,5.4597 -16.787805,4.6066 -0.2853,-0.2853 -0.6143,-2.0933 -0.7311,-4.0179 -0.1169,-1.9245 -0.6857,-4.0693 -1.2641,-4.7662 -0.7492,-0.9028 -0.644,-1.8246 0.3657,-3.2054 0.7795,-1.0661 1.4173,-2.757 1.4173,-3.7575 0,-1.0005 1.485,-3.952 3.2999,-6.5588 1.814905,-2.6069 3.914105,-6.3148 4.664705,-8.2398 0.7506,-1.925 1.9079,-4.175 2.5716,-5 2.0432,-2.5396 3.7838,-6.3158 2.5636,-5.5616 -1.575,0.9733 -1.2989,-1.5912 0.4151,-3.8563 1.0621,-1.4038 1.1601,-2.2688 0.3654,-3.2264 -0.8171,-0.9845 -0.318,-2.2779 2.0169,-5.2259 1.7065,-2.1547 3.1028,-4.6403 3.1028,-5.5237 0,-0.8833 0.6206,-1.6061 1.3792,-1.6061 0.7585,0 3.9306,-1.1681 7.049,-2.5958 7.0634,-3.2337 18.3134,-3.77 23.0718,-1.0999 1.65,0.9259 3.6902,1.6862 4.5337,1.6896 0.8436,0 3.9936,1.597 7,3.5415 6.3652,4.1168 7.7424,4.0239 16.11699,-1.0869 3.1079,-1.8967 6.1002,-3.4485 6.6495,-3.4485 0.5494,0 3.4065,-1.6259 6.3493,-3.6131 8.9781,-6.0628 19.9839,-11.0813 26.852,-12.2442 11.3205,-1.9167 21.9985,1.1051 21.9985,6.2254 0,1.2771 0.8527,3.0936 1.8949,4.0368 2.13472,1.9319 3.31275,6.3487 1.92243,7.208 -0.5225,0.3229 -0.41485,1.1671 0.25115,1.9696 0.89859,1.0828 0.79979,2.1753 -0.43134,4.7697 -3.06064,6.4498 -3.40674,23.8595 -0.43788,22.0247 0.76416,-0.4723 0.91951,-0.1288 0.47068,1.0409 -0.36847,0.9602 -0.66994,2.3537 -0.66994,3.0966 0,0.743 -0.7875,1.6046 -1.75,1.9148 -0.9625,0.3102 -4.382,5.0146 -7.5989,10.4542 l -5.8489,9.8902 -0.242,26.3632 c -0.1534,16.7211 -0.6693,27.6849 -1.4105,29.9771 -1.421,4.3947 -11.117,13.8861 -14.1855,13.8861 -1.1855,0 -3.4114,0.8943 -4.9465,1.9874 l -2.791,1.9874 -0.5521,-2.1112 c -0.5652,-2.1613 -0.5643,-2.1613 -7.3488,-0.2746 -1.7898,0.4977 -2.2319,0.1399 -2.5,-2.0233 -0.4451,-3.5903 -2.0072,-3.5 -3.9247,0.2268 l -1.599,3.1075 -2.2593,-3.0559 c -1.8556,-2.5098 -2.2363,-4.2432 -2.1308,-9.7 0.071,-3.6542 0.5417,-8.4192 1.0468,-10.5889 0.5052,-2.1696 0.6945,-4.3071 0.4208,-4.75 -0.7206,-1.1659 -5.1477,-0.9894 -5.9047,0.2355 -0.3538,0.5724 -1.5369,0.757 -2.6292,0.4103 -1.4465,-0.459 -2.1255,-0.097 -2.4995,1.3331 -0.2824,1.0799 -1.8258,2.9337 -3.4298,4.1196 -3.20889,2.3724 -3.75749,4.5596 -1.37329,5.4745 1.19449,0.4584 1.30749,1.0325 0.5,2.5412 -2.5611,4.7855 -0.4341,12.5042 5.13309,18.6276 1.8857,2.0739 3.1884,4.4772 3.0109,5.5544 -0.1958,1.1884 0.2718,1.8986 1.25,1.8986 2.3446,0 5.1701,3.2861 5.8808,6.8395 1.1437,5.7184 3.3308,7.7968 10.6976,10.1655 3.8128,1.226 7.619,1.9655 8.4584,1.6434 1.6847,-0.6465 2.1154,0.8694 0.5261,1.8516 -1.7864,1.1041 -1.0551,2.6523 0.952,2.0153 1.449,-0.46 3.5079,0.8109 7.9913,4.9326 3.3216,3.0537 6.5198,5.5521 7.107,5.5521 0.5873,0 0.7896,0.45 0.4497,1 -0.3399,0.55 -0.076,1 0.5856,1 1.6496,0 0.5971,10.3224 -2.0145,19.7582 -1.1049,3.992 -2.8427,10.292 -3.8618,14 -1.2192,4.4364 -3.5384,9.1355 -6.782,13.7418 -7.1029,10.0869 -9.25,14.991 -11.9623,27.3218 -3.3763,15.3494 -13.0893,23.2001 -24.965,20.1782 z m 12.201,-16.5031 c 2.6586,-1.8622 4.6978,-7.753 3.9603,-11.4406 -0.3041,-1.5205 -0.2181,-3.1677 0.1911,-3.6605 1.5747,-1.8958 4.0343,-11.1861 4.6463,-17.5494 0.3519,-3.6595 1.2694,-7.4845 2.0388,-8.5 0.7694,-1.0155 1.4132,-2.8589 1.4307,-4.0964 0.018,-1.2517 0.6558,-2.25 1.4382,-2.25 0.876,0 1.2239,-0.6976 0.9226,-1.8498 -0.3113,-1.1905 0.9623,-3.5206 3.5735,-6.5375 5.5501,-6.4127 9.2114,-12.914 9.3145,-16.5398 0.1653,-5.8147 -8.2469,-15.1183 -14.9555,-16.5403 -1.7812,-0.3776 -3.4953,-1.1018 -3.809,-1.6095 -0.3138,-0.5077 -1.4678,-0.9231 -2.5646,-0.9231 -1.0967,0 -3.6496,-1.125 -5.6731,-2.5 -2.0235,-1.375 -3.9974,-2.5 -4.3866,-2.5 -0.3891,0 -0.858,1.6875 -1.0419,3.75 l -0.3345,3.75 -1.3864,-2.75 c -1.107,-2.1958 -1.145,-3.2799 -0.1885,-5.3792 1.3372,-2.9349 0.7226,-4.3703 -1.0936,-2.5541 -1.9007,1.9007 -2.5173,1.4155 -3.2615,-2.5667 -0.3854,-2.0625 -1.2033,-4.3579 -1.8175,-5.1009 -0.6141,-0.743 -1.2123,-2.0028 -1.32929,-2.7997 -0.5335,-3.6349 -3.9218,-5.4026 -6.1276,-3.1968 -0.8701,0.8701 -0.674,1.7609 0.8,3.6348 1.5974,2.0308 1.9526,4.0671 1.9526,11.1938 0,5.9124 0.5044,9.7225 1.5697,11.858 1.4871,2.9811 1.2041,7.1608 -0.4849,7.1608 -0.4292,0 -0.8217,-1.2375 -0.8721,-2.75 -0.05,-1.5125 -2.6414,-8.7703 -5.7578,-16.1285 -3.3343,-7.8726 -6.1976,-16.4384 -6.9574,-20.8135 -0.7101,-4.0892 -1.5841,-7.7279 -1.9422,-8.0861 -1.2166,-1.2165 -4.0532,1.4799 -4.5557,4.3306 l -0.5004,2.8386 -1.2496,-2.7426 c -1.6588,-3.6407 -1.5773,-6.1317 0.2504,-7.6485 1.045,-0.8672 1.5,-3.1699 1.5,-7.5905 0,-5.884 -0.2001,-6.4572 -2.75,-7.8795 l -2.75,-1.534 3.9605,0.252 c 3.3072,0.2104 4.056,0.6644 4.5396,2.752 0.4145,1.7898 1.349,2.5899 3.2894,2.8164 2.4052,0.2808 2.7105,-0.015 2.7105,-2.6275 0,-1.6192 -0.6967,-3.5222 -1.5483,-4.2289 -1.7846,-1.4811 -1.5165,-5.586 0.3399,-5.204 0.6843,0.1407 2.8111,-0.3988 4.7263,-1.199 3.6159,-1.5108 4.5437,-4.0954 2.2821,-6.357 -0.9333,-0.9333 -0.8222,-1.2 0.5,-1.2 0.935,0 1.7,0.4342 1.7,0.9648 0,0.5307 0.9682,1.483 2.1516,2.1164 1.8355,0.9823 2.0559,0.914 1.5,-0.4649 -0.3584,-0.8889 -0.9418,-2.3358 -1.2966,-3.2153 -0.5623,-1.3941 -0.3748,-1.4303 1.4629,-0.2827 1.72679,1.0785 2.97069,1.0856 6.88199,0.04 2.6259,-0.7023 5.4905,-1.9251 6.3659,-2.7173 0.8754,-0.7922 2.7781,-1.4404 4.2281,-1.4404 3.0279,0 9.0828,-4.894 11.2572,-9.0988 2.3376,-4.5206 1.3777,-12.9013 -1.4777,-12.9013 -0.471,0 -4.5857,3.15 -9.1438,7 -4.5582,3.85 -8.8821,7 -9.6086,7 -0.7265,0 -1.6585,-0.018 -2.071,-0.039 -0.4125,-0.022 -0.975,1.4409 -1.25,3.25 -0.4364,2.8711 -0.9216,3.3298 -3.81529,3.6076 -3.0752,0.2951 -6.1847,-1.1027 -6.1847,-2.7802 0,-0.3944 1.125,-1.2296 2.5,-1.8561 1.375,-0.6265 2.5,-1.7334 2.5,-2.4597 0,-0.7263 1.57499,-1.89 3.49999,-2.5861 4.0881,-1.4783 4.2095,-1.9645 1.386,-5.554 -3.0359,-3.8595 -1.5798,-4.335 3.1781,-1.0377 3.185,2.2072 4.4727,2.6067 5.7681,1.7895 1.9647,-1.2393 2.1951,-3.4915 0.4178,-4.084 -0.6875,-0.2292 -1.25,0.2958 -1.25,1.1667 0,2.8098 -2.8583,1.6857 -5.464,-2.1488 -1.3948,-2.0527 -2.536,-4.333 -2.536,-5.0674 0,-0.95 -0.6492,-1.1094 -2.25,-0.5525 -1.2375,0.4306 -3.48749,0.7984 -4.99999,0.8174 -1.9392,0.024 -2.75,0.5506 -2.75,1.7846 0,3.1668 -1.8954,1.8247 -2.5805,-1.8272 -0.8426,-4.4918 0.8704,-12.98 2.0026,-9.9228 2.2189,5.992 2.6104,6.5 5.0094,6.5 1.3609,0 3.58639,-0.5067 4.94559,-1.1259 2.0334,-0.9265 3.2816,-0.7336 7.047,1.0892 2.5167,1.2183 4.5759,2.8233 4.5759,3.5666 0,1.1152 0.4808,1.1007 2.75,-0.083 1.5125,-0.789 4.0016,-1.4373 5.5314,-1.4407 1.7677,0 2.9831,-0.6439 3.3348,-1.7561 0.3043,-0.9625 1.2606,-3.4421 2.1251,-5.5102 1.7224,-4.121 1.1793,-5.7488 -1.2464,-3.7356 -1.3007,1.0795 -1.9599,0.9075 -4.0512,-1.0571 -2.4184,-2.272 -2.589,-2.2925 -5.375,-0.6468 -3.702,2.1868 -4.9996,2.1514 -4.4056,-0.1202 0.2618,-1.0009 -0.2303,-2.406 -1.0936,-3.1224 -2.3091,-1.9165 -1.923,-3.3086 0.6805,-2.4537 1.2375,0.4063 3.1092,0.6842 4.1594,0.6175 1.0502,-0.067 2.747,0.327 3.7707,0.8748 2.3127,1.2378 4.4958,0.1795 2.907,-1.4092 -1.8152,-1.8153 -1.2171,-2.8271 0.9771,-1.6528 1.6416,0.8786 1.9324,1.7046 1.4205,4.0352 -0.7685,3.499 -0.615,3.5299 4.0008,0.8065 1.98,-1.1682 3.8701,-1.8538 4.2003,-1.5235 0.3303,0.3302 -0.139,0.8841 -1.0427,1.2309 -2.0757,0.7965 -2.0775,1.8393 -0.01,3.9101 1.3438,1.3438 2.8193,1.5119 8.25,0.9402 l 6.6136,-0.6963 -1.9263,2.1549 c -1.4768,1.652 -1.6519,2.4295 -0.75,3.3313 1.8526,1.8524 1.3885,4.2287 -1.3234,6.7764 -1.375,1.2917 -2.5,3.3951 -2.5,4.6743 0,1.326 -0.6014,2.3257 -1.399,2.3257 -0.7695,0 -2.3862,1.8937 -3.5926,4.2084 -3.0582,5.8671 -3.8826,20.1054 -1.7062,29.4659 0.8728,3.7541 1.9494,8.5763 2.3924,10.716 0.4489,2.1682 1.7279,4.4974 2.8893,5.2617 1.8644,1.2269 2.5225,1.0535 6.25,-1.6467 3.9176,-2.8379 4.1661,-3.3122 4.1661,-7.9526 0,-2.7141 -0.3971,-5.1801 -0.8825,-5.4801 -0.4853,-0.3 -2.0603,0.3811 -3.5,1.5136 l -2.6175,2.0589 0,-2.3508 c 0,-1.2929 1.575,-5.6372 3.5,-9.654 1.925,-4.0168 3.5,-7.7216 3.5,-8.2327 0,-0.5112 0.916,-2.8782 2.0356,-5.2599 1.6242,-3.4554 1.8263,-4.8809 1,-7.0542 -0.5696,-1.4981 -1.0356,-4.1274 -1.0356,-5.843 0,-1.7157 -0.7387,-5.752 -1.6416,-8.9698 -1.6083,-5.732 -1.5981,-5.8967 0.5,-8.1301 1.1779,-1.2537 2.1416,-2.9829 2.1416,-3.8427 0,-2.065 -2.6162,-4.1692 -4.3544,-3.5022 -0.7589,0.2912 -3.6979,-0.5799 -6.5311,-1.9358 -2.8332,-1.3559 -5.5382,-2.2261 -6.0111,-1.9338 -0.4729,0.2922 -1.1096,-0.7172 -1.4148,-2.2432 -0.3826,-1.9131 -1.5848,-3.2276 -3.8718,-4.2338 -3.1632,-1.3916 -3.3477,-1.7716 -3.984,-8.2071 -0.4208,-4.2565 -1.4831,-8.0681 -2.877,-10.3235 -1.8225,-2.949 -2.0161,-4.0009 -1.1043,-6.0021 1.132,-2.4844 3.5405,-3.2192 4.6529,-1.4194 0.3423,0.5539 -0.081,1.277 -0.941,1.607 -2.7247,1.0456 -1.7971,3.386 1.342,3.386 1.8558,0 4.4187,-1.2644 7.0946,-3.5 4.248,-3.5492 8,-4.5768 8,-2.1912 0,0.7199 0.6414,2.1824 1.4253,3.25 1.3796,1.8789 1.4578,1.8561 2.4383,-0.7117 1.6094,-4.2145 2.8015,-4.1971 7.4733,0.1093 5.0711,4.6744 6.9876,5.0041 9.2262,1.5875 1.8071,-2.7579 1.2177,-4.5439 -1.4997,-4.5439 -3.357,0 -4.3052,-2.5399 -3.9053,-10.4599 l 0.3782,-7.4896 -4.0181,0.6118 c -2.21,0.3365 -4.9182,1.0908 -6.0182,1.6762 -1.1,0.5854 -3.575,1.1427 -5.5,1.2385 -1.925,0.096 -5.075,0.7484 -7,1.4502 -1.925,0.7018 -3.95,1.4272 -4.5,1.6121 -0.55,0.1849 -3.8682,2.3703 -7.3737,4.8564 -3.6914,2.618 -8.0106,4.7819 -10.2635,5.1422 -2.9955,0.479 -4.0267,1.167 -4.4848,2.992 -0.3271,1.3035 -1.171,2.3701 -1.8751,2.3701 -1.8025,0 -2.6912,5.8566 -1.5124,9.967 0.5869,2.0462 0.6235,3.8189 0.09,4.3524 -0.8778,0.8778 -5.692,-1.2777 -9.25229,-4.1426 -1.449,-1.166 -1.8883,-1.0147 -3.2976,1.1362 -1.6731,2.5533 -2.0313,4.7503 -1.7138,10.5085 0.1655,2.9996 0.4498,3.2904 2.9332,3 2.2276,-0.2605 2.6883,0.037 2.4249,1.5647 -0.2521,1.4623 0.1309,1.7671 1.7039,1.3557 1.76629,-0.4619 1.95639,-0.1679 1.46859,2.2709 -0.4505,2.2529 -0.05,3.136 2.0462,4.5094 2.8814,1.888 3.4833,4.4778 1.0407,4.4778 -3.0833,0 -5.59619,-2.2119 -7.46449,-6.5704 -1.5778,-3.6809 -2.3563,-4.4296 -4.6055,-4.4296 -1.4888,0 -3.5727,-0.7836 -4.6309,-1.7414 -1.8394,-1.6645 -2.0081,-1.6376 -3.8288,0.6108 -2.2668,2.7995 -2.4226,5.9035 -0.4837,9.6407 0.7814,1.5063 1.1833,3.3577 0.893,4.1143 -0.3451,0.8992 0.2018,1.3756 1.5791,1.3756 1.1589,0 2.107,0.45 2.107,1 0,2.4817 -4.6616,0.6673 -8.4538,-3.2905 l -4.111,-4.2905 1.8835,-3.225 c 2.2906,-3.922 1.6168,-6.194 -1.837,-6.194 -2.4687,0 -8.4817,2.5129 -8.4817,3.5447 0,0.2713 1.2375,0.2059 2.75,-0.1453 l 2.75,-0.6387 -2.7435,2.8404 c -2.605,2.697 -2.8312,2.7527 -4.4805,1.1035 -1.4382,-1.4383 -1.5253,-2.0758 -0.5065,-3.7072 1.7531,-2.8071 1.6167,-2.9974 -2.1471,-2.9974 -1.8888,0 -3.9681,-0.7117 -4.7175,-1.6147 -1.1504,-1.386 -0.9969,-1.8924 1.0842,-3.5776 2.2499,-1.8218 2.5124,-1.8423 3.651,-0.2852 1.314,1.797 3.3599,1.213 3.3599,-0.9591 0,-0.7252 -0.6815,-1.8842 -1.5145,-2.5755 -1.2435,-1.032 -2.423,-0.7855 -6.5923,1.3776 -2.7928,1.4489 -6.6408,2.6345 -8.5512,2.6345 -4.4662,0 -7.342,1.5618 -7.342,3.9874 0,1.6532 0.8603,1.9581 6.25,2.2148 l 6.25,0.2978 -3.7506,1.7971 c -2.0628,0.9885 -5.975,2.0607 -8.6939,2.3827 -5.9435,0.7039 -7.461705,2.934 -3.0454,4.4735 4.169,1.4533 3.7277,3.5709 -1.0101,4.8467 -4.224905,1.1376 -4.749905,1.8501 -2.8,3.8 1.8221,1.8221 5.2135,1.4544 11.9923,-1.3 3.3839,-1.375 6.9749,-2.5 7.9801,-2.5 1.0052,0 1.8276,-0.675 1.8276,-1.5 0,-1.3915 -1.7339,-1.9663 -4.75,-1.5747 -1.9423,0.2522 -1.4715,-1.7364 0.6843,-2.8902 1.0638,-0.5693 3.3296,-1.0351 5.0351,-1.0351 2.8335,0 3.0047,0.1798 1.9848,2.0856 -1.3004,2.4297 -0.4622,3.8224 1.2625,2.0977 1.6481,-1.6482 2.8336,-1.4781 2.1482,0.3082 -0.8359,2.1783 2.3094,2.9991 5.4489,1.422 1.4774,-0.7422 3.0237,-1.5138 3.4362,-1.7148 0.4125,-0.201 0.75,2.3765 0.75,5.7277 0,4.8556 0.4062,6.4409 2,7.8056 1.1,0.9418 2,2.5431 2,3.5583 0,1.7434 -0.1611,1.7311 -2.9044,-0.2223 -1.5974,-1.1374 -3.3974,-2.068 -4,-2.068 -2.8002,0 -0.019,7.1677 3.5149,9.0591 3.1211,1.6704 3.2237,4.3634 0.1395,3.6633 -9.5373,-2.1648 -8.75,-2.2713 -8.75,1.1839 0,2.1311 0.5685,3.3341 1.75,3.7035 0.9625,0.3009 2.9444,1.1867 4.4043,1.9686 3.2787,1.756 8.9988,1.8472 10.7581,0.1716 1.0707,-1.0198 1.1872,-0.8356 0.6326,1 -0.552,1.8269 -0.2911,2.25 1.3876,2.25 2.8061,0 2.5984,1.4371 -0.5675,3.9274 -3.6012,2.8327 -5.3094,2.6012 -5.992,-0.8121 -0.52,-2.6001 -1.0741,-2.9507 -5.6153,-3.5531 -2.771,-0.3676 -6.3565,-0.932 -7.9678,-1.2542 l -2.9296,-0.586 2.0661,3.389 c 1.1363,1.8639 2.0677,4.5567 2.0698,5.984 0,2.6849 2.0365,5.0372 5.5037,6.3694 1.3066,0.502 1.558,0.9332 0.7251,1.2436 -0.7011,0.2614 -1.9223,2.0247 -2.7136,3.9186 -0.7913,1.8939 -2.1301,4.1348 -2.9751,4.9798 -0.845,0.845 -1.5364,2.8543 -1.5364,4.465 0,1.6107 -0.437,2.9286 -0.9712,2.9286 -1.1737,0 -4.533,11.0451 -6.0822,19.9976 -1.5432,8.9177 -2.5247,10.4039 -4.1291,6.2524 -0.6908,-1.7875 -1.8323,-3.25 -2.5367,-3.25 -1.7708,0 -1.6085,-0.7319 0.7156,-3.2265 2.8042,-3.01 10.0036,-21.8869 10.0036,-26.2296 0,-4.1426 -2.5126,-5.931 -4.5049,-3.2064 -0.6685,0.9143 -2.1239,1.6625 -3.234,1.6625 -1.3058,0 -2.463,1.0732 -3.2776,3.0398 -1.4655,3.5379 -4.5342,5.9602 -7.551,5.9602 -1.1674,0 -2.9798,0.9598 -4.0275,2.1329 -1.8885,2.1143 -1.8855,2.1268 0.345,1.4326 1.7683,-0.5504 2.2453,-0.3112 2.228,1.1171 -0.03,2.5115 -3.5776,10.1037 -6.528305,13.9722 -1.3473,1.7664 -2.4497,4.0795 -2.4497,5.1401 0,1.0606 -1.3558,4.9186 -3.0129,8.5733 -1.6571,3.6546 -4.6457,13.7294 -6.6412,22.3883 -1.9956,8.6589 -3.9846,16.1408 -4.4201,16.6264 -1.3588,1.5155 0.2701,-14.7289 1.7758,-17.7084 0.7853,-1.554 1.8361,-5.379 2.3352,-8.5 0.954,-5.9661 5.7418,-18.1457 11.5246,-29.3174 3.588805,-6.933 4.257205,-9.8571 2.253105,-9.8571 -1.823305,0 -5.814505,4.1424 -5.814505,6.0347 0,1.797 -4.6501,9.2401 -6.1217,9.7986 -0.4831,0.1833 -0.8783,1.6458 -0.8783,3.25 0,2.195 -0.4684,2.9167 -1.893,2.9167 -2.6341,0 -3.107,1.8472 -3.107,12.1366 0,7.1006 -0.4531,9.9529 -2.1712,13.6682 -1.9202,4.1524 -2.282,7.4116 -3.1304,28.1952 -0.9576,23.461 -0.9551,23.5116 1.4618,30.5 l 2.421,7 6.9495,0.7718 c 9.0315,1.0031 12.101205,-0.1912 13.459705,-5.2363 0.552,-2.05 2.355,-5.5928 4.0066,-7.8728 1.6517,-2.28 3.003,-5.0493 3.003,-6.1541 0,-1.1047 0.3375,-1.9554 0.75,-1.8902 2.2011,0.3475 3.1263,-0.2773 2.5673,-1.7338 -0.4928,-1.2844 -0.179,-1.4755 1.5314,-0.9327 1.7282,0.5485 2.1513,0.2762 2.1513,-1.3846 0,-1.171 0.6504,-2.0673 1.5,-2.0673 1.6724,0 2.123,-4.9447 0.597,-6.55 -1.2791,-1.3456 -1.9253,-7.9198 -3.1897,-32.45 -0.6095,-11.825 -1.2955,-21.695 -1.5244,-21.9334 -1.3514,-1.4069 -2.8564,2.9609 -3.3332,9.6735 -0.4773,6.72 -0.8132,7.788 -2.5497,8.1073 -1.1,0.2023 -2.5625,0.8244 -3.25,1.3826 -1.8525,1.504 -1.5444,4.77 0.45,4.77 1.2294,0 1.3975,0.3024 0.6074,1.0926 -1.3233,1.3233 -3.853,0.1385 -6.941005,-3.2508 -2.7855,-3.0572 -4.4147,-14.1814 -1.9379,-13.2309 1.1742,0.4506 1.5715,-0.039 1.5715,-1.9346 0,-2.4728 3.812005,-9.5495 5.189605,-9.634 0.3793,-0.023 0.8293,1.5776 1,3.5574 l 0.3104,3.5998 2.75,-2.1723 c 2.1644,-1.7098 2.75,-3.0087 2.75,-6.0998 0,-4.8212 1.1929,-4.9346 5.5956,-0.5319 3.3451,3.3451 3.3855,3.4901 2.7193,9.75 -0.372,3.495 -0.7075,10.6295 -0.7456,15.8545 -0.063,8.6247 0.097,9.4717 1.7356,9.1935 1.6907,-0.287 1.7061,-0.1156 0.2442,2.7115 -1.3965,2.7006 -1.4071,3.8896 -0.1004,11.3065 2.309,13.1056 3.2321,16.8693 4.4317,18.0689 0.6158,0.6158 1.1196,2.3301 1.1196,3.8095 0,1.6266 1.8441,5.2044 4.6644,9.05 6.5263,8.8987 22.6236,24.6488 26.0359,25.4744 1.5398,0.3725 3.9247,1.4591 5.2997,2.4147 3.1534,2.1915 5.24699,2.71 11.52749,2.855 3.0276,0.07 5.8812,-0.482 7.1735,-1.3871 z m -9.9724,-15.6289 c -1.9105,-1.0691 -2.42,-5.2651 -0.5642,-4.6465 1.6905,0.5635 4.0991,4.4976 3.1229,5.1009 -0.4565,0.2822 -1.6079,0.078 -2.5587,-0.4544 z m -16.72859,-10.309 c 0,-0.8574 0.45,-1.559 1,-1.559 0.55,0 1,0.4235 1,0.941 0,0.5175 -0.45,1.2191 -1,1.559 -0.55,0.3399 -1,-0.083 -1,-0.941 z m -2.9157,-5.809 c -0.4681,-1.2375 -0.6895,-2.4266 -0.4919,-2.6425 0.6583,-0.7192 3.4076,2.1166 3.4076,3.515 0,2.19 -1.9814,1.5971 -2.9157,-0.8725 z m -5.4448,-4.4438 c -1.1262,-1.1262 -0.6859,-2.3062 0.8605,-2.3062 0.825,0 1.5,0.4235 1.5,0.941 0,1.261 -1.5616,2.1641 -2.3605,1.3652 z m 21.02719,-1.9729 c -0.36669,-0.3666 -0.66669,-1.2825 -0.66669,-2.0351 0,-1.0587 0.4529,-1.1262 1.99999,-0.2982 1.1,0.5887 2,1.5045 2,2.0352 0,1.0971 -2.3263,1.3051 -3.3333,0.2981 z m -7.66669,-8.8923 c 0,-1.4514 0.4328,-2.2915 1,-1.941 0.55,0.3399 1,1.4915 1,2.559 0,1.0676 -0.45,1.941 -1,1.941 -0.55,0 -1,-1.1515 -1,-2.559 z m -50.9847,0.368 c -0.01,-0.93 0.4347,-1.9691 0.9847,-2.309 1.2656,-0.7822 1.2656,0.5416 0,2.5 -0.8354,1.2927 -0.9715,1.2663 -0.9847,-0.191 z m 32.6202,-1.2426 c -1.8533,-2.8284 -2.1642,-5.0112 -0.5738,-4.0283 1.1839,0.7317 3.215,5.5186 2.6017,6.1318 -0.2158,0.2159 -1.1284,-0.7307 -2.0279,-2.1035 z m 30.42929,-6.304 c -1.6945,-2.0556 -3.8134,-5.6556 -4.70869,-8 -0.8953,-2.3443 -2.0167,-4.2624 -2.492,-4.2624 -0.4752,0 -0.8641,-0.6609 -0.8641,-1.4686 0,-2.3047 2.2472,-0.7959 5.24049,3.5186 1.5073,2.1725 3.4039,3.95 4.2148,3.95 1.9468,0 3.5447,3.1259 3.5447,6.9343 0,4.0302 -1.1933,3.8678 -4.9352,-0.6719 z m -36.06479,-6.7624 c 0,-4.5841 0.2673,-5.6327 1.1982,-4.7017 1.4701,1.4701 1.3999,8.0036 -0.1022,9.5057 -0.7947,0.7947 -1.096,-0.526 -1.096,-4.804 z m -29.7818,0.3455 c 0.519,-1.5571 2.7562,-1.8298 2.8346,-0.3455 0.029,0.55 -0.6978,1.1555 -1.6151,1.3455 -1.0428,0.216 -1.4999,-0.1589 -1.2195,-1 z m -15.026505,-0.9205 c 0.1971,-0.5912 0.7858,-1.075 1.3083,-1.075 0.5225,0 1.1112,0.4838 1.3083,1.075 0.1971,0.5913 -0.3916,1.075 -1.3083,1.075 -0.9167,0 -1.5054,-0.4837 -1.3083,-1.075 z m 62.966205,-1.925 c 0,-1.375 0.227,-1.9375 0.5044,-1.25 0.2774,0.6875 0.2774,1.8125 0,2.5 -0.2774,0.6875 -0.5044,0.125 -0.5044,-1.25 z m -61.079005,-4.5833 c 0.048,-1.165 0.285,-1.4019 0.6042,-0.6042 0.2889,0.7219 0.2534,1.5844 -0.079,1.9167 -0.3323,0.3323 -0.5687,-0.2584 -0.5253,-1.3125 z m 33.655105,-1.0279 c -0.678,-3.5466 0.2473,-7.0251 1.3894,-5.2233 1.118,1.7636 1.1119,6.571 -0.01,7.2638 -0.4871,0.3011 -1.1082,-0.6171 -1.3803,-2.0405 z m 24.3449,-2.9721 c 0.048,-1.165 0.285,-1.4019 0.6042,-0.6042 0.2889,0.7219 0.2534,1.5844 -0.079,1.9167 -0.3323,0.3323 -0.5687,-0.2584 -0.5253,-1.3125 z m -52.689805,-0.3964 c -2.5922,-1.0474 -3.3406,-2.8231 -2.6695,-6.3337 0.9327,-4.8791 2.8699,-2.8202 2.3448,2.4921 -0.1123,1.1355 0.7153,1.7826 2.5577,2 1.498005,0.1767 2.908405,0.8838 3.134105,1.5713 0.466,1.419 -2.192905,1.5529 -5.367105,0.2703 z m 81.938395,-6.8679 c -3.4514,-7.8054 -3.1648,-8.4111 1.0811,-2.2843 1.7663,2.5489 2.6257,4.9342 2.4163,6.7073 -0.2781,2.3552 -0.7819,1.718 -3.4974,-4.423 z m -53.49379,-1.4512 c -0.5877,-5.0337 0.2073,-11.7012 1.3952,-11.7012 0.6235,0 0.8418,2.1339 0.5627,5.5 -0.2509,3.025 -0.2155,5.5 0.079,5.5 0.2941,0 2.0119,-1.4317 3.8173,-3.1816 1.8055,-1.7499 3.504,-2.9603 3.7746,-2.6897 0.2705,0.2705 -1.6936,2.6445 -4.3647,5.2755 l -4.8566,4.7835 -0.407,-3.4865 z m -2.8019,-17.8679 c 0.03,-4.0773 0.1208,-4.2156 1.5377,-2.3405 1.7138,2.2677 1.5412,5.6494 -0.3195,6.2622 -0.874,0.2879 -1.2404,-0.8918 -1.2182,-3.9217 z m -16.3921,-11.679 c -1.5655,-1.7298 -1.5438,-2.0065 0.345,-4.4077 1.1084,-1.4091 2.0153,-2.8468 2.0153,-3.1948 0,-0.348 1.011,-2.077 2.2466,-3.8423 1.2357,-1.7652 2.3682,-3.4045 2.5167,-3.6428 0.1485,-0.2384 0.7996,0.096 1.4468,0.7434 0.9023,0.9023 0.561,1.8196 -1.4636,3.9333 -2.9959,3.1277 -6.1071,9.8641 -5.2193,11.3006 0.9823,1.5895 -0.1098,1.0747 -1.8875,-0.8897 z m 38.8603,-7.1543 c 0.9955,-1.1 2.1902,-2 2.655,-2 1.4981,0 0.8975,2.7659 -0.7368,3.393 -2.9836,1.145 -3.7267,0.6054 -1.9182,-1.393 z m 8.5062,-59.095 c -0.01,-4.2112 -2.7524,-7.3233 -5.5223,-6.2604 -1.4802,0.568 -1.7031,0.3017 -1.2376,-1.4783 0.3609,-1.3804 0.01,-2.4839 -0.9677,-3.0303 -1.0694,-0.5984 -1.1908,-1.0722 -0.4002,-1.5608 0.6244,-0.3859 2.4391,0.2268 4.0328,1.3616 3.2778,2.334 5.1665,2.5855 6.8409,0.9111 0.8695,-0.8695 1.4491,-0.5005 2.3625,1.5042 1.3773,3.023 0.6091,4.4934 -1.4534,2.7817 -1.126,-0.9345 -1.3058,-0.7255 -0.955,1.1097 0.2377,1.2436 -0.2711,3.61 -1.1308,5.2588 l -1.5631,2.9977 -0.01,-3.595 z m 28.29999,-62.6038 c -1.7035,-0.6141 -3.7447,-7.2627 -2.5855,-8.4219 1.2798,-1.2798 6.2793,2.7575 6.2793,5.0709 0,2.1367 -2.0082,3.9585 -3.6938,3.351 z m 36.7433,-21.4784 c -1.1156,-1.1975 -1.8467,-2.3589 -1.6246,-2.581 0.7137,-0.7137 4.3201,1.6514 4.9261,3.2304 0.8537,2.2248 -0.9553,1.8689 -3.3015,-0.6494 z m -114.36659,170.3793 c -1.6041,-1.7725 -1.5869,-1.979 0.309,-3.6948 2.5646,-2.3208 2.8917,-5.4834 0.3496,-3.3797 -2.3311,1.9291 -5.293405,8.8082 -5.319505,12.3532 l -0.022,2.9808 3.191005,-3.191 c 3.0318,-3.0318 3.1062,-3.2847 1.4919,-5.0685 z m 55.4884,-27.8571 c 2.3417,-2.1193 2.3101,-3.5993 -0.1241,-5.8022 -1.8893,-1.7099 -1.9736,-1.6743 -2.5929,1.095 -0.3521,1.5742 -0.8537,3.6497 -1.1146,4.6122 -0.6007,2.2157 1.4326,2.2661 3.8316,0.095 z m -6.7889,-11.9576 -0.6557,-2.6126 2.6678,1.7481 c 3.1081,2.0364 4.56,1.2352 2.8176,-1.5548 -0.6666,-1.0675 -1.2121,-2.6221 -1.2121,-3.4545 0,-2.1656 -1.0027,-1.8852 -4.1953,1.1735 -3.2364,3.1007 -3.5232,4.7951 -1.0547,6.2328 2.3911,1.3927 2.3712,1.4113 1.6324,-1.5325 z m -2.3519,-5.4443 c 1.47,-2.7469 -0.8427,-3.5754 -3.2527,-1.1653 -2.1761,2.1761 -1.6657,4.5002 0.782,3.5609 0.8227,-0.3157 1.9345,-1.3937 2.4707,-2.3956 z m 46.54299,-4.2579 c -2.9147,-3.8213 -3.2667,-5.6852 -1.0735,-5.6852 2.3868,0 1.7503,-1.6856 -1.5142,-4.0101 l -3.0142,-2.1463 1.1766,2.5824 c 1.3445,2.9509 0.2133,4.9714 -1.2847,2.2947 -1.4983,-2.6775 -2.8635,-1.071 -2.8635,3.3697 0,4.2403 2.379,6.428 4.138,3.8053 0.7423,-1.1068 1.49,-0.7001 3.6123,1.9646 3.4507,4.3328 4.2255,2.2856 0.8232,-2.1751 z m -66.23279,-12.6511 c -0.1895,-3.8681 -1.5816,-5.5394 -3.8796,-4.6575 -1.2607,0.4838 -1.504,1.3163 -0.9868,3.3771 1.4902,5.9373 5.1415,6.898 4.8664,1.2804 z m 69.65929,-48.4751 c 0,-0.7925 -0.359,-1.6628 -0.7977,-1.934 -1.2793,-0.7906 -3.5252,1.0435 -2.7714,2.2632 0.9922,1.6054 3.5691,1.3678 3.5691,-0.3292 z m 21.7057,-11.5766 c -0.2902,-1.1097 0.1394,-2.6847 0.9548,-3.5 1.7363,-1.7364 0.1644,-1.9942 -2.7262,-0.4472 -2.168,1.1603 -2.6027,4.5284 -0.6843,5.3025 2.3994,0.9682 2.9795,0.648 2.4557,-1.3553 z m -82.74559,-11.5304 c -1.3654,-1.6453 -4.9601,-1.9728 -4.9601,-0.452 0,1.8789 0.4407,2.5001 1.587,2.2368 0.6304,-0.1447 1.7687,0.4878 2.5296,1.4057 1.29,1.5563 1.4058,1.554 1.716,-0.035 0.1829,-0.937 -0.2097,-2.3571 -0.8725,-3.1557 z m 71.61349,-1.8659 c 1.1103,-0.7776 3.3479,-1.5651 4.9725,-1.75 5.4906,-0.6247 9.6344,-13.6784 4.9168,-15.4887 -0.8661,-0.3323 -3.1308,0.9268 -5.4731,3.0428 -4.409,3.9833 -4.2965,3.9484 -11.7398,3.6415 l -5.25,-0.2165 0,3.4576 c 0,7.1046 7.0321,11.1947 12.5736,7.3133 z m 18.3912,-1.5203 c 1.504,-2.8102 1.3451,-9.3342 -0.2148,-8.822 -0.6875,0.2257 -1.4015,1.7257 -1.5868,3.3333 -0.1852,1.6076 -0.9976,3.2967 -1.8054,3.7536 -1.1461,0.6483 -1.2099,1.1425 -0.2908,2.25 1.598,1.9255 2.6674,1.7842 3.8978,-0.5149 z m -80.96479,-0.8658 c 0,-0.44 -0.5484,-1.3484 -1.2187,-2.0187 -0.9584,-0.9584 -0.4776,-1.0772 2.25,-0.556 l 3.4687,0.6628 -2.1834,-2.394 c -1.2009,-1.3168 -2.6436,-3.6089 -3.2061,-5.0937 -0.7698,-2.0321 -2.0845,-2.9716 -5.3166,-3.7994 -6.2552,-1.602 -7.1518,-1.9764 -6.4397,-2.6886 0.9363,-0.9362 8.6238,-0.4747 12.2993,0.7383 3.5149,1.16 5.0059,3.4823 2.7834,4.3352 -3.1067,1.1921 -1.3301,2.7214 2.8131,2.4216 3.764,-0.2723 4.2852,-0.6115 4.5576,-2.9658 0.2598,-2.2454 -0.533,-3.2162 -5.1035,-6.25 -2.9761,-1.9754 -5.9013,-3.5917 -6.5004,-3.5917 -0.5992,0 -2.6991,-0.9497 -4.6665,-2.1105 -2.9117,-1.718 -4.4501,-1.9797 -8.2697,-1.4069 -11.2421,1.6859 -17.6653,7.1262 -17.1321,14.5105 0.2177,3.0155 -0.2708,4.5222 -2.0964,6.4654 -1.3091,1.3935 -2.099,2.8148 -1.7553,3.1585 0.9323,0.9323 11.5866,-0.5981 12.3098,-1.7682 0.3437,-0.5562 -0.5492,-2.2369 -1.9843,-3.7348 -3.2547,-3.3972 -3.3086,-4.3304 -0.1812,-3.1414 1.3353,0.5077 5.4978,0.6771 9.25,0.3764 6.5419,-0.5243 12.322,0.618 12.322,2.4351 0,0.4585 -0.6476,1.7072 -1.4391,2.7748 -1.2152,1.6392 -1.7525,1.7499 -3.4536,0.7116 -1.9344,-1.1806 -4.1615,0.01 -2.7185,1.4517 1.3927,1.3926 11.6112,2.6932 11.6112,1.4778 z m -24,-15.2 c 0,-0.55 0.9,-1 2,-1 1.1,0 2,0.45 2,1 0,0.55 -0.9,1 -2,1 -1.1,0 -2,-0.45 -2,-1 z m 9.0201,11.4758 c 0.6957,-0.8382 1.0097,-1.7793 0.6978,-2.0913 -0.9285,-0.9284 -4.4891,0.5768 -5.0941,2.1536 -0.7616,1.9846 2.7387,1.935 4.3963,-0.062 z"
           style="fill:#000000" />
      </g>
      <path
         style="fill:#ad7d65;fill-opacity:1;fill-rule:evenodd;stroke:#000000;stroke-width:3;stroke-linecap:round;stroke-linejoin:round;stroke-miterlimit:4;stroke-dasharray:none;stroke-opacity:1"
         d="m 1276.782,-224.41978 0,-90.84795 -22.0982,-9.8214 -31.9195,36.83025 -17.1875,49.107 7.3661,117.85679 -2.4554,125.2228521 -2.4553,137.4995979 0,154.68705 -7.3661,135.04425 -7.366,85.93725 -34.3749,51.56235 147.321,19.6428 54.0177,0 -71.2052,-451.7844 -22.0981,-243.07965 z"
         id="path11685" />
      <path
         style="opacity:0.14900004;fill:#77a6eb;fill-opacity:1;fill-rule:evenodd;stroke:#000000;stroke-width:3;stroke-linecap:round;stroke-linejoin:round;stroke-miterlimit:4;stroke-dasharray:none;stroke-opacity:1"
         d="m 1254.6839,-10.804332 68.7497,434.596942 284.8206,346.20434 19.6428,-942.85438 -368.3024,-110.49075 z"
         id="path11691" />
      <path
         style="fill:#699561;fill-opacity:1;fill-rule:evenodd;stroke:#000000;stroke-width:3;stroke-linecap:butt;stroke-linejoin:miter;stroke-miterlimit:4;stroke-dasharray:none;stroke-opacity:1"
         d="m 934.95435,466.50356 c -15.28828,-19.14904 -16.19328,-45.98964 -23.79561,-70.18089 -6.48474,-28.35616 -21.77885,-58.81073 -10.72412,-87.77889 29.14961,-24.07852 -24.01094,-46.09742 -11.97656,-78.06517 2.69984,-25.15819 -11.98752,-57.68548 12.69345,-74.45204 30.46192,-10.10336 5.68479,-49.24518 21.15715,-72.171339 27.64409,3.238212 66.62261,43.375469 32.67427,71.381539 -6.82684,21.11874 -30.71553,75.38093 2.54976,78.96782 17.05903,-23.40778 26.7435,-45.017 27.71302,-73.5383 6.77601,-28.85709 -29.24944,-60.792494 -1.22489,-84.562518 11.90986,-14.053402 7.55964,-55.553662 26.63578,-54.084469 2.6373,33.367702 7.224,65.808042 24.1739,95.621297 12.1343,24.4066 17.6396,13.32704 14.0116,-8.08599 3.4713,-25.774335 -6.2424,-56.316092 5.1586,-78.960129 24.1289,-14.208469 14.4618,38.163948 8.0203,50.537598 -2.9012,20.879861 27.7426,43.042401 7.0574,66.135731 0.6066,8.13056 -10.1344,32.23833 7.5881,20.25774 0.1235,25.79108 -6.5393,63.62368 -15.0563,81.26835 -0.6415,-20.93495 24.2951,-34.36742 31.4691,-44.20538 39.0569,-11.145 22.7079,35.7143 22.9756,57.93244 13.3016,12.88427 51.1851,-31.5876 50.9074,7.47721 11.0267,37.68452 4.8763,77.29627 6.4944,115.96816 0.6088,28.16535 -36.5318,40.37589 -48.4007,63.25527 -3.4355,32.37408 1.6712,66.83591 -14.5333,97.33109 -18.6562,24.49464 -60.04,19.64792 -78.4021,-3.37222 -21.3122,-14.48531 -52.36301,-17.84522 -71.445,-37.31693 -11.10846,-13.17288 -12.10454,-27.93095 -22.36684,-36.60266 -1.11814,-0.91911 -2.23627,-1.83821 -3.35441,-2.75732 z"
         id="path11741" />
      <path
         style="fill:#b6a566;fill-opacity:1;fill-rule:evenodd;stroke:#000000;stroke-width:3;stroke-linecap:round;stroke-linejoin:round;stroke-miterlimit:4;stroke-dasharray:none;stroke-opacity:1"
         d="m -85.937249,463.07821 c 52.287979,7.19214 106.709619,8.65043 133.687257,58.46191 27.949859,-62.91194 83.638422,47.66379 118.006172,-19.45914 53.89236,-32.92775 101.78168,108.88169 145.60522,7.78747 58.78723,-16.46716 115.32484,-0.70051 166.50523,-25.91509 76.73687,47.88518 105.36976,-89.90093 196.37984,-66.82456 64.40242,-11.90037 129.49438,-17.57869 194.94742,-15.43434 64.56355,-86.05385 167.14731,-24.85474 255.11731,-30.14305 72.5345,16.05693 133.9377,-39.37995 202.3851,5.8047 73.5923,28.89118 150.6597,77.84305 171.0672,154.47186 26.5092,69.01258 81.3834,136.58498 84.4007,204.70473 -47.3504,81.84217 -145.4335,78.96665 -228.3392,80.49565 -78.3414,14.91408 -156.703,26.81534 -236.0402,32.27014 C 1000.4209,874.5739 879.58755,859.60316 761.44278,874.91991 663.29212,875.33488 575.96776,849.029 476.3379,870.66627 392.50459,875.8112 317.28484,834.507 232.85707,849.10096 150.00644,841.25356 52.851005,776.0016 -20.885795,727.78439 -74.692967,686.88731 -104.68944,655.56098 -90.99808,568.84324 c -3.48863,-29.30791 -23.58299,-108.161 5.060831,-105.76503 z"
         id="path11697" />
      <path
         style="fill:#699561;fill-opacity:1;fill-rule:evenodd;stroke:#000000;stroke-width:3;stroke-linecap:butt;stroke-linejoin:miter;stroke-miterlimit:4;stroke-dasharray:none;stroke-opacity:1"
         d="m 482.16685,616.85667 c -8.82472,-32.28827 -14.55024,-65.13891 -14.2315,-98.66232 -7.94652,-41.64838 19.94177,-92.91035 -25.36897,-121.60742 -10.14084,-13.55711 -24.75752,-37.97902 -27.7992,-4.39582 -40.39839,15.82448 2.23692,72.5614 -39.99086,89.28895 -18.07689,10.84183 -79.58628,45.99937 -67.71946,2.38565 12.21312,-40.51768 31.05397,-79.99546 49.72584,-118.46251 6.9045,-34.32887 23.71285,-82.8702 -6.06928,-109.44831 -8.55849,22.78906 -28.06062,48.39517 -11.65712,71.5425 -14.42223,11.42587 -29.06592,59.06355 -41.00616,22.40284 -37.2552,-32.93923 -10.6239,-69.21446 7.84063,-101.14944 15.5599,-53.31505 -85.36248,-19.90771 -42.97524,7.31366 4.23685,29.53771 -22.97568,58.88612 -41.90792,83.81529 -36.77479,41.29751 -20.19471,-35.21615 -15.94345,-57.07197 16.15288,-49.09712 -54.4963,-83.09475 -84.09043,-53.06714 8.01353,30.73601 15.85858,66.29319 -0.99708,100.17732 2.92595,25.84767 -10.15404,68.57717 -40.839215,37.29643 C 32.906518,351.21734 15.466847,307.76258 24.192797,262.29572 20.632284,226.92873 34.28614,181.49166 8.4272546,153.69998 c -24.0283456,18.87436 -22.7701466,53.52099 0.2136984,69.12787 7.62687,35.93532 3.326169,68.63546 -25.111995,94.11 -27.576355,5.17445 -5.008158,43.67855 -15.935755,42.23154 -36.252204,-24.76438 -20.783194,50.55346 -9.928324,65.10321 14.59041,33.67511 -46.053636,66.95676 0.946351,92.80638 14.261031,21.68313 9.333403,62.63436 49.3453573,49.75532 40.5820627,0.74327 74.6614647,31.58229 94.3827327,64.85204 29.45977,23.51354 69.62822,19.65535 102.46887,34.88307 43.71755,17.15811 67.5934,-58.2553 108.62258,-21.24942 38.81296,4.74539 69.03136,49.32561 108.16629,24.91061 20.27277,-14.1234 7.11481,-57.58221 45.88009,-42.5727 5.73254,-6.52689 11.53154,-4.5517 14.6897,-10.80123 z"
         id="path11747" />
      <path
         style="fill:#699561;fill-opacity:1;fill-rule:evenodd;stroke:#000000;stroke-width:3;stroke-linecap:butt;stroke-linejoin:miter;stroke-miterlimit:4;stroke-dasharray:none;stroke-opacity:1"
         d="M 5.1845898,639.32322 C 8.6351592,600.86009 -1.6410653,564.20397 0.04073999,526.02309 -7.7232012,499.63584 36.846416,444.67357 53.465397,484.87242 c 8.181316,16.69001 0.884235,56.43403 24.719895,28.77252 27.290598,-18.77137 -16.326811,-65.67858 9.243891,-75.80766 38.901277,15.24778 19.753057,64.57945 35.798797,91.78938 18.88731,27.44049 57.71737,-33.31751 76.59475,1.5948 5.89554,23.9277 18.2242,49.21986 46.36203,31.30891 31.35385,-3.55383 67.91883,-29.15634 92.54255,2.21685 -2.28578,25.88841 -12.72141,66.38182 24.71287,70.41034 30.36465,-1.09146 74.57095,10.77543 70.33716,49.09877 23.04597,15.52508 58.28441,29.87317 58.75869,61.71264 -4.40783,38.46612 -61.42938,28.54291 -89.17652,23.22945 -29.4177,1.56041 -49.53171,-24.79154 -74.48679,-26.41142 -35.2941,1.83541 -6.28752,53.12636 -44.94604,46.88932 -40.66407,9.97496 -41.84595,-43.69063 -69.49833,-57.35236 -34.80453,-13.39344 -70.74868,39.10118 -95.99643,-0.96769 -18.14367,-22.49284 -33.067365,-53.64202 -64.925822,-54.6856 -10.95009,23.38098 -28.952471,-8.07827 -40.534585,-15.36302 -1.820593,-9.83409 0.697493,-15.25317 -7.7869232,-21.98443 z"
         id="path11751" />
      <path
         style="opacity:0.16300001;fill:#77a6eb;fill-opacity:1;fill-rule:evenodd;stroke:#000000;stroke-width:3;stroke-linecap:round;stroke-linejoin:round;stroke-miterlimit:4;stroke-dasharray:none;stroke-opacity:1"
         d="m -71.205144,-271.07143 -31.919546,913.39019 247.99034,186.60659 34.3749,-1014.05953 z"
         id="path11687" />
      <path
         style="fill:#ad7d65;fill-opacity:1;fill-rule:evenodd;stroke:#000000;stroke-width:3;stroke-linecap:round;stroke-linejoin:round;stroke-miterlimit:4;stroke-dasharray:none;stroke-opacity:1"
         d="m -61.383744,-293.16958 -9.8214,-17.18745 -17.18745,-7.36605 -19.642796,17.18745 -14.7321,360.936442 -22.09815,402.677398 -22.09815,142.4103 7.36605,218.52614 19.6428,-2.4553 22.09815,14.7321 90.847936,-9.8214 2.45535,-41.741 184.151254,149.7764 -9.8214,-98.214 -176.785204,-139.95499 -54.01769,-41.74095 -9.8214,-27.00885 7.36605,-618.7481979 27.00885,-238.1689421 2.45534,-61.38375 z"
         id="path11681" />
      <path
         style="opacity:0.38500001;fill:#508be2;fill-opacity:1;fill-rule:evenodd;stroke:#000000;stroke-width:3;stroke-linecap:round;stroke-linejoin:round;stroke-miterlimit:4;stroke-dasharray:none;stroke-opacity:1"
         d="M -58.928394,-190.04488 157.1424,-79.554138 1591.0668,-96.741588 1284.148,-197.41093 l -1026.33625,9.8214 z"
         id="path11693" />
      <g
         id="g11728"
         transform="matrix(0.30070581,0.95371694,-0.95371694,0.30070581,2020.888,-491.22193)">
        <g
           id="g11720">
          <path
             id="path11716"
             d="m 564.65779,1207.1361 -26.68515,9.6066 -28.81996,17.0785 -20.28071,-10.674 -21.34812,0 -10.67406,5.337 -10.67406,30.9548 -7.47185,12.8088 2.13481,11.7415 8.53925,-2.1348 17.0785,-7.4718 10.67406,2.1348 -3.20222,13.8762 -4.26962,5.3371 -4.26963,10.674 0,11.7415 0,6.4044 -21.34812,17.0785 -17.0785,20.2808 -8.53925,29.8873 -3.20221,54.4377 7.47184,23.483 16.01109,-2.1349 21.34812,-22.4155 25.61775,29.8874 34.15699,14.9437 22.41553,-44.8311 16.01109,-40.5614 -14.94369,-14.9437 -23.48293,-13.8763 -20.28071,-39.494 10.67406,-16.0111 14.94368,-1.0674 1.06741,24.5503 13.87628,4.2697 11.74146,-3.2022 11.74147,-7.4719 0,-38.4266 -1.06741,-25.6177 11.74147,-19.2134 0,-25.6177 1.06741,-8.5393 z"
             style="fill:#d25852;fill-opacity:1;fill-rule:evenodd;stroke:none;stroke-width:1px;stroke-linecap:butt;stroke-linejoin:miter;stroke-opacity:1" />
          <path
             id="path11718"
             d="m 510.08588,1494.797 c -1.65,-0.4198 -4.89139,-0.8166 -7.20309,-0.8817 -3.5223,-0.099 -5.0613,-0.8878 -9.5,-4.8683 -6.4667,-5.799 -12.3518,-11.8704 -16.1454,-16.6563 -1.5667,-1.9765 -3.606,-3.5937 -4.5319,-3.5937 -1.099,0 -1.7595,-0.9195 -1.9026,-2.6489 -0.2472,-2.9863 -2.0197,-5.5911 -3.2762,-4.8145 -0.7877,0.4869 -2.9232,-5.5649 -2.9352,-8.318 0,-0.7047 -0.6806,-1.5404 -1.5056,-1.857 -0.825,-0.3165 -1.5,-1.2809 -1.5,-2.1429 0,-3.5175 -4.9336,3.2381 -8.6548,11.851 -2.9491,6.8258 -4.3002,8.9035 -5.7976,8.9151 -1.0738,0.01 -3.4622,1.4777 -5.30751,3.2652 -2.9966,2.9027 -3.9543,3.244 -8.9616,3.194 -5.299,-0.053 -5.811,-0.2864 -9.3338,-4.2561 -2.1249,-2.3944 -3.925,-5.5947 -4.1872,-7.444 -0.8315,-5.8654 -2.9016,-13.1773 -4.863,-17.1768 -1.3074,-2.666 -1.6011,-4.2605 -0.9116,-4.95 1.3967,-1.3967 1.2833,-7.9509 -0.1627,-9.3969 -0.9064,-0.9064 -0.8791,-1.7417 0.118,-3.6046 0.7137,-1.3337 1.043,-2.837 0.7316,-3.3408 -0.877,-1.4191 1.3182,-21.4759 2.6474,-24.1884 0.8847,-1.8054 0.8934,-2.5109 0.035,-2.7994 -1.3439,-0.4515 -0.6422,-8.0781 0.9258,-10.0612 0.554,-0.7007 0.7362,-1.5453 0.4048,-1.8767 -0.3315,-0.3315 0.031,-1.8287 0.8062,-3.3271 1.0053,-1.9439 1.1008,-3.0326 0.3334,-3.8 -0.7675,-0.7674 -0.4663,-2.0615 1.0512,-4.5168 1.1697,-1.8927 2.1268,-4.2232 2.1268,-5.1789 0,-0.9556 1.125,-3.0746 2.5,-4.7087 1.375,-1.634 2.5,-3.669 2.5,-4.5222 0,-1.9449 11.2086,-15.307 25.25001,-30.1013 9.725,-10.2464 10.75,-11.6823 10.75,-15.0602 0,-2.0536 0.5466,-4.2804 1.2146,-4.9484 0.668,-0.6681 1.4703,-3.8896 1.7829,-7.1589 0.5196,-5.4348 0.394,-5.9693 -1.4646,-6.2355 -1.9113,-0.2737 -1.8733,-0.4322 0.6363,-2.6512 1.4681,-1.298 2.9392,-3.4355 3.2691,-4.75 0.3299,-1.3144 1.0412,-2.3899 1.5808,-2.3899 0.5395,0 0.9809,-1.2021 0.9809,-2.6712 0,-1.4692 0.7544,-3.5049 1.6764,-4.5237 1.0935,-1.2083 1.336,-2.1927 0.6974,-2.8313 -1.4444,-1.4443 -11.6812,0.6508 -19.3738,3.9652 -6.9487,2.9939 -15.93471,5.4597 -16.78781,4.6066 -0.2853,-0.2853 -0.6143,-2.0933 -0.7311,-4.0179 -0.1169,-1.9245 -0.6857,-4.0693 -1.2641,-4.7662 -0.7492,-0.9028 -0.644,-1.8246 0.3657,-3.2054 0.7795,-1.0661 1.4173,-2.757 1.4173,-3.7575 0,-1.0005 1.485,-3.952 3.2999,-6.5588 1.81491,-2.6069 3.91411,-6.3148 4.66471,-8.2398 0.7506,-1.925 1.9079,-4.175 2.5716,-5 2.0432,-2.5396 3.7838,-6.3158 2.5636,-5.5616 -1.575,0.9733 -1.2989,-1.5912 0.4151,-3.8563 1.0621,-1.4038 1.1601,-2.2688 0.3654,-3.2264 -0.8171,-0.9845 -0.318,-2.2779 2.0169,-5.2259 1.7065,-2.1547 3.1028,-4.6403 3.1028,-5.5237 0,-0.8833 0.6206,-1.6061 1.3792,-1.6061 0.7585,0 3.9306,-1.1681 7.049,-2.5958 7.0634,-3.2337 18.3134,-3.77 23.0718,-1.0999 1.65,0.9259 3.6902,1.6862 4.5337,1.6896 0.8436,0 3.9936,1.597 7,3.5415 6.3652,4.1168 7.7424,4.0239 16.11699,-1.0869 3.1079,-1.8967 6.1002,-3.4485 6.6495,-3.4485 0.5494,0 3.4065,-1.6259 6.3493,-3.6131 8.9781,-6.0628 19.9839,-11.0813 26.852,-12.2442 11.3205,-1.9167 21.9985,1.1051 21.9985,6.2254 0,1.2771 0.8527,3.0936 1.8949,4.0368 2.13472,1.9319 3.31275,6.3487 1.92243,7.208 -0.5225,0.3229 -0.41485,1.1671 0.25115,1.9696 0.89859,1.0828 0.79979,2.1753 -0.43134,4.7697 -3.06064,6.4498 -3.40674,23.8595 -0.43788,22.0247 0.76416,-0.4723 0.91951,-0.1288 0.47068,1.0409 -0.36847,0.9602 -0.66994,2.3537 -0.66994,3.0966 0,0.743 -0.7875,1.6046 -1.75,1.9148 -0.9625,0.3102 -4.382,5.0146 -7.5989,10.4542 l -5.8489,9.8902 -0.242,26.3632 c -0.1534,16.7211 -0.6693,27.6849 -1.4105,29.9771 -1.421,4.3947 -11.117,13.8861 -14.1855,13.8861 -1.1855,0 -3.4114,0.8943 -4.9465,1.9874 l -2.791,1.9874 -0.5521,-2.1112 c -0.5652,-2.1613 -0.5643,-2.1613 -7.3488,-0.2746 -1.7898,0.4977 -2.2319,0.1399 -2.5,-2.0233 -0.4451,-3.5903 -2.0072,-3.5 -3.9247,0.2268 l -1.599,3.1075 -2.2593,-3.0559 c -1.8556,-2.5098 -2.2363,-4.2432 -2.1308,-9.7 0.071,-3.6542 0.5417,-8.4192 1.0468,-10.5889 0.5052,-2.1696 0.6945,-4.3071 0.4208,-4.75 -0.7206,-1.1659 -5.1477,-0.9894 -5.9047,0.2355 -0.3538,0.5724 -1.5369,0.757 -2.6292,0.4103 -1.4465,-0.459 -2.1255,-0.097 -2.4995,1.3331 -0.2824,1.0799 -1.8258,2.9337 -3.4298,4.1196 -3.20889,2.3724 -3.75749,4.5596 -1.37329,5.4745 1.19449,0.4584 1.30749,1.0325 0.5,2.5412 -2.5611,4.7855 -0.4341,12.5042 5.13309,18.6276 1.8857,2.0739 3.1884,4.4772 3.0109,5.5544 -0.1958,1.1884 0.2718,1.8986 1.25,1.8986 2.3446,0 5.1701,3.2861 5.8808,6.8395 1.1437,5.7184 3.3308,7.7968 10.6976,10.1655 3.8128,1.226 7.619,1.9655 8.4584,1.6434 1.6847,-0.6465 2.1154,0.8694 0.5261,1.8516 -1.7864,1.1041 -1.0551,2.6523 0.952,2.0153 1.449,-0.46 3.5079,0.8109 7.9913,4.9326 3.3216,3.0537 6.5198,5.5521 7.107,5.5521 0.5873,0 0.7896,0.45 0.4497,1 -0.3399,0.55 -0.076,1 0.5856,1 1.6496,0 0.5971,10.3224 -2.0145,19.7582 -1.1049,3.992 -2.8427,10.292 -3.8618,14 -1.2192,4.4364 -3.5384,9.1355 -6.782,13.7418 -7.1029,10.0869 -9.25,14.991 -11.9623,27.3218 -3.3763,15.3494 -13.0893,23.2001 -24.965,20.1782 z m 12.201,-16.5031 c 2.6586,-1.8622 4.6978,-7.753 3.9603,-11.4406 -0.3041,-1.5205 -0.2181,-3.1677 0.1911,-3.6605 1.5747,-1.8958 4.0343,-11.1861 4.6463,-17.5494 0.3519,-3.6595 1.2694,-7.4845 2.0388,-8.5 0.7694,-1.0155 1.4132,-2.8589 1.4307,-4.0964 0.018,-1.2517 0.6558,-2.25 1.4382,-2.25 0.876,0 1.2239,-0.6976 0.9226,-1.8498 -0.3113,-1.1905 0.9623,-3.5206 3.5735,-6.5375 5.5501,-6.4127 9.2114,-12.914 9.3145,-16.5398 0.1653,-5.8147 -8.2469,-15.1183 -14.9555,-16.5403 -1.7812,-0.3776 -3.4953,-1.1018 -3.809,-1.6095 -0.3138,-0.5077 -1.4678,-0.9231 -2.5646,-0.9231 -1.0967,0 -3.6496,-1.125 -5.6731,-2.5 -2.0235,-1.375 -3.9974,-2.5 -4.3866,-2.5 -0.3891,0 -0.858,1.6875 -1.0419,3.75 l -0.3345,3.75 -1.3864,-2.75 c -1.107,-2.1958 -1.145,-3.2799 -0.1885,-5.3792 1.3372,-2.9349 0.7226,-4.3703 -1.0936,-2.5541 -1.9007,1.9007 -2.5173,1.4155 -3.2615,-2.5667 -0.3854,-2.0625 -1.2033,-4.3579 -1.8175,-5.1009 -0.6141,-0.743 -1.2123,-2.0028 -1.32929,-2.7997 -0.5335,-3.6349 -3.9218,-5.4026 -6.1276,-3.1968 -0.8701,0.8701 -0.674,1.7609 0.8,3.6348 1.5974,2.0308 1.9526,4.0671 1.9526,11.1938 0,5.9124 0.5044,9.7225 1.5697,11.858 1.4871,2.9811 1.2041,7.1608 -0.4849,7.1608 -0.4292,0 -0.8217,-1.2375 -0.8721,-2.75 -0.05,-1.5125 -2.6414,-8.7703 -5.7578,-16.1285 -3.3343,-7.8726 -6.1976,-16.4384 -6.9574,-20.8135 -0.7101,-4.0892 -1.5841,-7.7279 -1.9422,-8.0861 -1.2166,-1.2165 -4.0532,1.4799 -4.5557,4.3306 l -0.5004,2.8386 -1.2496,-2.7426 c -1.6588,-3.6407 -1.5773,-6.1317 0.2504,-7.6485 1.045,-0.8672 1.5,-3.1699 1.5,-7.5905 0,-5.884 -0.2001,-6.4572 -2.75,-7.8795 l -2.75,-1.534 3.9605,0.252 c 3.3072,0.2104 4.056,0.6644 4.5396,2.752 0.4145,1.7898 1.349,2.5899 3.2894,2.8164 2.4052,0.2808 2.7105,-0.015 2.7105,-2.6275 0,-1.6192 -0.6967,-3.5222 -1.5483,-4.2289 -1.7846,-1.4811 -1.5165,-5.586 0.3399,-5.204 0.6843,0.1407 2.8111,-0.3988 4.7263,-1.199 3.6159,-1.5108 4.5437,-4.0954 2.2821,-6.357 -0.9333,-0.9333 -0.8222,-1.2 0.5,-1.2 0.935,0 1.7,0.4342 1.7,0.9648 0,0.5307 0.9682,1.483 2.1516,2.1164 1.8355,0.9823 2.0559,0.914 1.5,-0.4649 -0.3584,-0.8889 -0.9418,-2.3358 -1.2966,-3.2153 -0.5623,-1.3941 -0.3748,-1.4303 1.4629,-0.2827 1.72679,1.0785 2.97069,1.0856 6.88199,0.04 2.6259,-0.7023 5.4905,-1.9251 6.3659,-2.7173 0.8754,-0.7922 2.7781,-1.4404 4.2281,-1.4404 3.0279,0 9.0828,-4.894 11.2572,-9.0988 2.3376,-4.5206 1.3777,-12.9013 -1.4777,-12.9013 -0.471,0 -4.5857,3.15 -9.1438,7 -4.5582,3.85 -8.8821,7 -9.6086,7 -0.7265,0 -1.6585,-0.018 -2.071,-0.039 -0.4125,-0.022 -0.975,1.4409 -1.25,3.25 -0.4364,2.8711 -0.9216,3.3298 -3.81529,3.6076 -3.0752,0.2951 -6.1847,-1.1027 -6.1847,-2.7802 0,-0.3944 1.125,-1.2296 2.5,-1.8561 1.375,-0.6265 2.5,-1.7334 2.5,-2.4597 0,-0.7263 1.57499,-1.89 3.49999,-2.5861 4.0881,-1.4783 4.2095,-1.9645 1.386,-5.554 -3.0359,-3.8595 -1.5798,-4.335 3.1781,-1.0377 3.185,2.2072 4.4727,2.6067 5.7681,1.7895 1.9647,-1.2393 2.1951,-3.4915 0.4178,-4.084 -0.6875,-0.2292 -1.25,0.2958 -1.25,1.1667 0,2.8098 -2.8583,1.6857 -5.464,-2.1488 -1.3948,-2.0527 -2.536,-4.333 -2.536,-5.0674 0,-0.95 -0.6492,-1.1094 -2.25,-0.5525 -1.2375,0.4306 -3.48749,0.7984 -4.99999,0.8174 -1.9392,0.024 -2.75,0.5506 -2.75,1.7846 0,3.1668 -1.8954,1.8247 -2.5805,-1.8272 -0.8426,-4.4918 0.8704,-12.98 2.0026,-9.9228 2.2189,5.992 2.6104,6.5 5.0094,6.5 1.3609,0 3.58639,-0.5067 4.94559,-1.1259 2.0334,-0.9265 3.2816,-0.7336 7.047,1.0892 2.5167,1.2183 4.5759,2.8233 4.5759,3.5666 0,1.1152 0.4808,1.1007 2.75,-0.083 1.5125,-0.789 4.0016,-1.4373 5.5314,-1.4407 1.7677,0 2.9831,-0.6439 3.3348,-1.7561 0.3043,-0.9625 1.2606,-3.4421 2.1251,-5.5102 1.7224,-4.121 1.1793,-5.7488 -1.2464,-3.7356 -1.3007,1.0795 -1.9599,0.9075 -4.0512,-1.0571 -2.4184,-2.272 -2.589,-2.2925 -5.375,-0.6468 -3.702,2.1868 -4.9996,2.1514 -4.4056,-0.1202 0.2618,-1.0009 -0.2303,-2.406 -1.0936,-3.1224 -2.3091,-1.9165 -1.923,-3.3086 0.6805,-2.4537 1.2375,0.4063 3.1092,0.6842 4.1594,0.6175 1.0502,-0.067 2.747,0.327 3.7707,0.8748 2.3127,1.2378 4.4958,0.1795 2.907,-1.4092 -1.8152,-1.8153 -1.2171,-2.8271 0.9771,-1.6528 1.6416,0.8786 1.9324,1.7046 1.4205,4.0352 -0.7685,3.499 -0.615,3.5299 4.0008,0.8065 1.98,-1.1682 3.8701,-1.8538 4.2003,-1.5235 0.3303,0.3302 -0.139,0.8841 -1.0427,1.2309 -2.0757,0.7965 -2.0775,1.8393 -0.01,3.9101 1.3438,1.3438 2.8193,1.5119 8.25,0.9402 l 6.6136,-0.6963 -1.9263,2.1549 c -1.4768,1.652 -1.6519,2.4295 -0.75,3.3313 1.8526,1.8524 1.3885,4.2287 -1.3234,6.7764 -1.375,1.2917 -2.5,3.3951 -2.5,4.6743 0,1.326 -0.6014,2.3257 -1.399,2.3257 -0.7695,0 -2.3862,1.8937 -3.5926,4.2084 -3.0582,5.8671 -3.8826,20.1054 -1.7062,29.4659 0.8728,3.7541 1.9494,8.5763 2.3924,10.716 0.4489,2.1682 1.7279,4.4974 2.8893,5.2617 1.8644,1.2269 2.5225,1.0535 6.25,-1.6467 3.9176,-2.8379 4.1661,-3.3122 4.1661,-7.9526 0,-2.7141 -0.3971,-5.1801 -0.8825,-5.4801 -0.4853,-0.3 -2.0603,0.3811 -3.5,1.5136 l -2.6175,2.0589 0,-2.3508 c 0,-1.2929 1.575,-5.6372 3.5,-9.654 1.925,-4.0168 3.5,-7.7216 3.5,-8.2327 0,-0.5112 0.916,-2.8782 2.0356,-5.2599 1.6242,-3.4554 1.8263,-4.8809 1,-7.0542 -0.5696,-1.4981 -1.0356,-4.1274 -1.0356,-5.843 0,-1.7157 -0.7387,-5.752 -1.6416,-8.9698 -1.6083,-5.732 -1.5981,-5.8967 0.5,-8.1301 1.1779,-1.2537 2.1416,-2.9829 2.1416,-3.8427 0,-2.065 -2.6162,-4.1692 -4.3544,-3.5022 -0.7589,0.2912 -3.6979,-0.5799 -6.5311,-1.9358 -2.8332,-1.3559 -5.5382,-2.2261 -6.0111,-1.9338 -0.4729,0.2922 -1.1096,-0.7172 -1.4148,-2.2432 -0.3826,-1.9131 -1.5848,-3.2276 -3.8718,-4.2338 -3.1632,-1.3916 -3.3477,-1.7716 -3.984,-8.2071 -0.4208,-4.2565 -1.4831,-8.0681 -2.877,-10.3235 -1.8225,-2.949 -2.0161,-4.0009 -1.1043,-6.0021 1.132,-2.4844 3.5405,-3.2192 4.6529,-1.4194 0.3423,0.5539 -0.081,1.277 -0.941,1.607 -2.7247,1.0456 -1.7971,3.386 1.342,3.386 1.8558,0 4.4187,-1.2644 7.0946,-3.5 4.248,-3.5492 8,-4.5768 8,-2.1912 0,0.7199 0.6414,2.1824 1.4253,3.25 1.3796,1.8789 1.4578,1.8561 2.4383,-0.7117 1.6094,-4.2145 2.8015,-4.1971 7.4733,0.1093 5.0711,4.6744 6.9876,5.0041 9.2262,1.5875 1.8071,-2.7579 1.2177,-4.5439 -1.4997,-4.5439 -3.357,0 -4.3052,-2.5399 -3.9053,-10.4599 l 0.3782,-7.4896 -4.0181,0.6118 c -2.21,0.3365 -4.9182,1.0908 -6.0182,1.6762 -1.1,0.5854 -3.575,1.1427 -5.5,1.2385 -1.925,0.096 -5.075,0.7484 -7,1.4502 -1.925,0.7018 -3.95,1.4272 -4.5,1.6121 -0.55,0.1849 -3.8682,2.3703 -7.3737,4.8564 -3.6914,2.618 -8.0106,4.7819 -10.2635,5.1422 -2.9955,0.479 -4.0267,1.167 -4.4848,2.992 -0.3271,1.3035 -1.171,2.3701 -1.8751,2.3701 -1.8025,0 -2.6912,5.8566 -1.5124,9.967 0.5869,2.0462 0.6235,3.8189 0.09,4.3524 -0.8778,0.8778 -5.692,-1.2777 -9.25229,-4.1426 -1.449,-1.166 -1.8883,-1.0147 -3.2976,1.1362 -1.6731,2.5533 -2.0313,4.7503 -1.7138,10.5085 0.1655,2.9996 0.4498,3.2904 2.9332,3 2.2276,-0.2605 2.6883,0.037 2.4249,1.5647 -0.2521,1.4623 0.1309,1.7671 1.7039,1.3557 1.76629,-0.4619 1.95639,-0.1679 1.46859,2.2709 -0.4505,2.2529 -0.05,3.136 2.0462,4.5094 2.8814,1.888 3.4833,4.4778 1.0407,4.4778 -3.0833,0 -5.59619,-2.2119 -7.46449,-6.5704 -1.5778,-3.6809 -2.3563,-4.4296 -4.6055,-4.4296 -1.4888,0 -3.5727,-0.7836 -4.6309,-1.7414 -1.8394,-1.6645 -2.0081,-1.6376 -3.8288,0.6108 -2.2668,2.7995 -2.4226,5.9035 -0.4837,9.6407 0.7814,1.5063 1.1833,3.3577 0.893,4.1143 -0.3451,0.8992 0.2018,1.3756 1.5791,1.3756 1.1589,0 2.107,0.45 2.107,1 0,2.4817 -4.6616,0.6673 -8.4538,-3.2905 l -4.111,-4.2905 1.8835,-3.225 c 2.2906,-3.922 1.6168,-6.194 -1.837,-6.194 -2.4687,0 -8.4817,2.5129 -8.4817,3.5447 0,0.2713 1.2375,0.2059 2.75,-0.1453 l 2.75,-0.6387 -2.7435,2.8404 c -2.605,2.697 -2.8312,2.7527 -4.4805,1.1035 -1.4382,-1.4383 -1.5253,-2.0758 -0.5065,-3.7072 1.7531,-2.8071 1.6167,-2.9974 -2.1471,-2.9974 -1.8888,0 -3.9681,-0.7117 -4.7175,-1.6147 -1.1504,-1.386 -0.9969,-1.8924 1.0842,-3.5776 2.2499,-1.8218 2.5124,-1.8423 3.651,-0.2852 1.314,1.797 3.3599,1.213 3.3599,-0.9591 0,-0.7252 -0.6815,-1.8842 -1.5145,-2.5755 -1.2435,-1.032 -2.423,-0.7855 -6.5923,1.3776 -2.7928,1.4489 -6.6408,2.6345 -8.5512,2.6345 -4.4662,0 -7.342,1.5618 -7.342,3.9874 0,1.6532 0.8603,1.9581 6.25,2.2148 l 6.25,0.2978 -3.7506,1.7971 c -2.0628,0.9885 -5.975,2.0607 -8.6939,2.3827 -5.9435,0.7039 -7.46171,2.934 -3.0454,4.4735 4.169,1.4533 3.7277,3.5709 -1.0101,4.8467 -4.22491,1.1376 -4.74991,1.8501 -2.8,3.8 1.8221,1.8221 5.2135,1.4544 11.9923,-1.3 3.3839,-1.375 6.9749,-2.5 7.9801,-2.5 1.0052,0 1.8276,-0.675 1.8276,-1.5 0,-1.3915 -1.7339,-1.9663 -4.75,-1.5747 -1.9423,0.2522 -1.4715,-1.7364 0.6843,-2.8902 1.0638,-0.5693 3.3296,-1.0351 5.0351,-1.0351 2.8335,0 3.0047,0.1798 1.9848,2.0856 -1.3004,2.4297 -0.4622,3.8224 1.2625,2.0977 1.6481,-1.6482 2.8336,-1.4781 2.1482,0.3082 -0.8359,2.1783 2.3094,2.9991 5.4489,1.422 1.4774,-0.7422 3.0237,-1.5138 3.4362,-1.7148 0.4125,-0.201 0.75,2.3765 0.75,5.7277 0,4.8556 0.4062,6.4409 2,7.8056 1.1,0.9418 2,2.5431 2,3.5583 0,1.7434 -0.1611,1.7311 -2.9044,-0.2223 -1.5974,-1.1374 -3.3974,-2.068 -4,-2.068 -2.8002,0 -0.019,7.1677 3.5149,9.0591 3.1211,1.6704 3.2237,4.3634 0.1395,3.6633 -9.5373,-2.1648 -8.75,-2.2713 -8.75,1.1839 0,2.1311 0.5685,3.3341 1.75,3.7035 0.9625,0.3009 2.9444,1.1867 4.4043,1.9686 3.2787,1.756 8.9988,1.8472 10.7581,0.1716 1.0707,-1.0198 1.1872,-0.8356 0.6326,1 -0.552,1.8269 -0.2911,2.25 1.3876,2.25 2.8061,0 2.5984,1.4371 -0.5675,3.9274 -3.6012,2.8327 -5.3094,2.6012 -5.992,-0.8121 -0.52,-2.6001 -1.0741,-2.9507 -5.6153,-3.5531 -2.771,-0.3676 -6.3565,-0.932 -7.9678,-1.2542 l -2.9296,-0.586 2.0661,3.389 c 1.1363,1.8639 2.0677,4.5567 2.0698,5.984 0,2.6849 2.0365,5.0372 5.5037,6.3694 1.3066,0.502 1.558,0.9332 0.7251,1.2436 -0.7011,0.2614 -1.9223,2.0247 -2.7136,3.9186 -0.7913,1.8939 -2.1301,4.1348 -2.9751,4.9798 -0.845,0.845 -1.5364,2.8543 -1.5364,4.465 0,1.6107 -0.437,2.9286 -0.9712,2.9286 -1.1737,0 -4.533,11.0451 -6.0822,19.9976 -1.5432,8.9177 -2.5247,10.4039 -4.1291,6.2524 -0.6908,-1.7875 -1.8323,-3.25 -2.5367,-3.25 -1.7708,0 -1.6085,-0.7319 0.7156,-3.2265 2.8042,-3.01 10.0036,-21.8869 10.0036,-26.2296 0,-4.1426 -2.5126,-5.931 -4.5049,-3.2064 -0.6685,0.9143 -2.1239,1.6625 -3.234,1.6625 -1.3058,0 -2.463,1.0732 -3.2776,3.0398 -1.4655,3.5379 -4.5342,5.9602 -7.551,5.9602 -1.1674,0 -2.9798,0.9598 -4.0275,2.1329 -1.8885,2.1143 -1.8855,2.1268 0.345,1.4326 1.7683,-0.5504 2.2453,-0.3112 2.228,1.1171 -0.03,2.5115 -3.5776,10.1037 -6.52831,13.9722 -1.3473,1.7664 -2.4497,4.0795 -2.4497,5.1401 0,1.0606 -1.3558,4.9186 -3.0129,8.5733 -1.6571,3.6546 -4.6457,13.7294 -6.6412,22.3883 -1.9956,8.6589 -3.9846,16.1408 -4.4201,16.6264 -1.3588,1.5155 0.2701,-14.7289 1.7758,-17.7084 0.7853,-1.554 1.8361,-5.379 2.3352,-8.5 0.954,-5.9661 5.7418,-18.1457 11.5246,-29.3174 3.58881,-6.933 4.25721,-9.8571 2.25311,-9.8571 -1.82331,0 -5.81451,4.1424 -5.81451,6.0347 0,1.797 -4.6501,9.2401 -6.1217,9.7986 -0.4831,0.1833 -0.8783,1.6458 -0.8783,3.25 0,2.195 -0.4684,2.9167 -1.893,2.9167 -2.6341,0 -3.107,1.8472 -3.107,12.1366 0,7.1006 -0.4531,9.9529 -2.1712,13.6682 -1.9202,4.1524 -2.282,7.4116 -3.1304,28.1952 -0.9576,23.461 -0.9551,23.5116 1.4618,30.5 l 2.421,7 6.9495,0.7718 c 9.0315,1.0031 12.10121,-0.1912 13.45971,-5.2363 0.552,-2.05 2.355,-5.5928 4.0066,-7.8728 1.6517,-2.28 3.003,-5.0493 3.003,-6.1541 0,-1.1047 0.3375,-1.9554 0.75,-1.8902 2.2011,0.3475 3.1263,-0.2773 2.5673,-1.7338 -0.4928,-1.2844 -0.179,-1.4755 1.5314,-0.9327 1.7282,0.5485 2.1513,0.2762 2.1513,-1.3846 0,-1.171 0.6504,-2.0673 1.5,-2.0673 1.6724,0 2.123,-4.9447 0.597,-6.55 -1.2791,-1.3456 -1.9253,-7.9198 -3.1897,-32.45 -0.6095,-11.825 -1.2955,-21.695 -1.5244,-21.9334 -1.3514,-1.4069 -2.8564,2.9609 -3.3332,9.6735 -0.4773,6.72 -0.8132,7.788 -2.5497,8.1073 -1.1,0.2023 -2.5625,0.8244 -3.25,1.3826 -1.8525,1.504 -1.5444,4.77 0.45,4.77 1.2294,0 1.3975,0.3024 0.6074,1.0926 -1.3233,1.3233 -3.853,0.1385 -6.94101,-3.2508 -2.7855,-3.0572 -4.4147,-14.1814 -1.9379,-13.2309 1.1742,0.4506 1.5715,-0.039 1.5715,-1.9346 0,-2.4728 3.81201,-9.5495 5.18961,-9.634 0.3793,-0.023 0.8293,1.5776 1,3.5574 l 0.3104,3.5998 2.75,-2.1723 c 2.1644,-1.7098 2.75,-3.0087 2.75,-6.0998 0,-4.8212 1.1929,-4.9346 5.5956,-0.5319 3.3451,3.3451 3.3855,3.4901 2.7193,9.75 -0.372,3.495 -0.7075,10.6295 -0.7456,15.8545 -0.063,8.6247 0.097,9.4717 1.7356,9.1935 1.6907,-0.287 1.7061,-0.1156 0.2442,2.7115 -1.3965,2.7006 -1.4071,3.8896 -0.1004,11.3065 2.309,13.1056 3.2321,16.8693 4.4317,18.0689 0.6158,0.6158 1.1196,2.3301 1.1196,3.8095 0,1.6266 1.8441,5.2044 4.6644,9.05 6.5263,8.8987 22.6236,24.6488 26.0359,25.4744 1.5398,0.3725 3.9247,1.4591 5.2997,2.4147 3.1534,2.1915 5.24699,2.71 11.52749,2.855 3.0276,0.07 5.8812,-0.482 7.1735,-1.3871 z m -9.9724,-15.6289 c -1.9105,-1.0691 -2.42,-5.2651 -0.5642,-4.6465 1.6905,0.5635 4.0991,4.4976 3.1229,5.1009 -0.4565,0.2822 -1.6079,0.078 -2.5587,-0.4544 z m -16.72859,-10.309 c 0,-0.8574 0.45,-1.559 1,-1.559 0.55,0 1,0.4235 1,0.941 0,0.5175 -0.45,1.2191 -1,1.559 -0.55,0.3399 -1,-0.083 -1,-0.941 z m -2.9157,-5.809 c -0.4681,-1.2375 -0.6895,-2.4266 -0.4919,-2.6425 0.6583,-0.7192 3.4076,2.1166 3.4076,3.515 0,2.19 -1.9814,1.5971 -2.9157,-0.8725 z m -5.4448,-4.4438 c -1.1262,-1.1262 -0.6859,-2.3062 0.8605,-2.3062 0.825,0 1.5,0.4235 1.5,0.941 0,1.261 -1.5616,2.1641 -2.3605,1.3652 z m 21.02719,-1.9729 c -0.36669,-0.3666 -0.66669,-1.2825 -0.66669,-2.0351 0,-1.0587 0.4529,-1.1262 1.99999,-0.2982 1.1,0.5887 2,1.5045 2,2.0352 0,1.0971 -2.3263,1.3051 -3.3333,0.2981 z m -7.66669,-8.8923 c 0,-1.4514 0.4328,-2.2915 1,-1.941 0.55,0.3399 1,1.4915 1,2.559 0,1.0676 -0.45,1.941 -1,1.941 -0.55,0 -1,-1.1515 -1,-2.559 z m -50.9847,0.368 c -0.01,-0.93 0.4347,-1.9691 0.9847,-2.309 1.2656,-0.7822 1.2656,0.5416 0,2.5 -0.8354,1.2927 -0.9715,1.2663 -0.9847,-0.191 z m 32.6202,-1.2426 c -1.8533,-2.8284 -2.1642,-5.0112 -0.5738,-4.0283 1.1839,0.7317 3.215,5.5186 2.6017,6.1318 -0.2158,0.2159 -1.1284,-0.7307 -2.0279,-2.1035 z m 30.42929,-6.304 c -1.6945,-2.0556 -3.8134,-5.6556 -4.70869,-8 -0.8953,-2.3443 -2.0167,-4.2624 -2.492,-4.2624 -0.4752,0 -0.8641,-0.6609 -0.8641,-1.4686 0,-2.3047 2.2472,-0.7959 5.24049,3.5186 1.5073,2.1725 3.4039,3.95 4.2148,3.95 1.9468,0 3.5447,3.1259 3.5447,6.9343 0,4.0302 -1.1933,3.8678 -4.9352,-0.6719 z m -36.06479,-6.7624 c 0,-4.5841 0.2673,-5.6327 1.1982,-4.7017 1.4701,1.4701 1.3999,8.0036 -0.1022,9.5057 -0.7947,0.7947 -1.096,-0.526 -1.096,-4.804 z m -29.7818,0.3455 c 0.519,-1.5571 2.7562,-1.8298 2.8346,-0.3455 0.029,0.55 -0.6978,1.1555 -1.6151,1.3455 -1.0428,0.216 -1.4999,-0.1589 -1.2195,-1 z m -15.02651,-0.9205 c 0.1971,-0.5912 0.7858,-1.075 1.3083,-1.075 0.5225,0 1.1112,0.4838 1.3083,1.075 0.1971,0.5913 -0.3916,1.075 -1.3083,1.075 -0.9167,0 -1.5054,-0.4837 -1.3083,-1.075 z m 62.96621,-1.925 c 0,-1.375 0.227,-1.9375 0.5044,-1.25 0.2774,0.6875 0.2774,1.8125 0,2.5 -0.2774,0.6875 -0.5044,0.125 -0.5044,-1.25 z m -61.07901,-4.5833 c 0.048,-1.165 0.285,-1.4019 0.6042,-0.6042 0.2889,0.7219 0.2534,1.5844 -0.079,1.9167 -0.3323,0.3323 -0.5687,-0.2584 -0.5253,-1.3125 z m 33.65511,-1.0279 c -0.678,-3.5466 0.2473,-7.0251 1.3894,-5.2233 1.118,1.7636 1.1119,6.571 -0.01,7.2638 -0.4871,0.3011 -1.1082,-0.6171 -1.3803,-2.0405 z m 24.3449,-2.9721 c 0.048,-1.165 0.285,-1.4019 0.6042,-0.6042 0.2889,0.7219 0.2534,1.5844 -0.079,1.9167 -0.3323,0.3323 -0.5687,-0.2584 -0.5253,-1.3125 z m -52.68981,-0.3964 c -2.5922,-1.0474 -3.3406,-2.8231 -2.6695,-6.3337 0.9327,-4.8791 2.8699,-2.8202 2.3448,2.4921 -0.1123,1.1355 0.7153,1.7826 2.5577,2 1.49801,0.1767 2.90841,0.8838 3.13411,1.5713 0.466,1.419 -2.19291,1.5529 -5.36711,0.2703 z m 81.9384,-6.8679 c -3.4514,-7.8054 -3.1648,-8.4111 1.0811,-2.2843 1.7663,2.5489 2.6257,4.9342 2.4163,6.7073 -0.2781,2.3552 -0.7819,1.718 -3.4974,-4.423 z m -53.49379,-1.4512 c -0.5877,-5.0337 0.2073,-11.7012 1.3952,-11.7012 0.6235,0 0.8418,2.1339 0.5627,5.5 -0.2509,3.025 -0.2155,5.5 0.079,5.5 0.2941,0 2.0119,-1.4317 3.8173,-3.1816 1.8055,-1.7499 3.504,-2.9603 3.7746,-2.6897 0.2705,0.2705 -1.6936,2.6445 -4.3647,5.2755 l -4.8566,4.7835 -0.407,-3.4865 z m -2.8019,-17.8679 c 0.03,-4.0773 0.1208,-4.2156 1.5377,-2.3405 1.7138,2.2677 1.5412,5.6494 -0.3195,6.2622 -0.874,0.2879 -1.2404,-0.8918 -1.2182,-3.9217 z m -16.3921,-11.679 c -1.5655,-1.7298 -1.5438,-2.0065 0.345,-4.4077 1.1084,-1.4091 2.0153,-2.8468 2.0153,-3.1948 0,-0.348 1.011,-2.077 2.2466,-3.8423 1.2357,-1.7652 2.3682,-3.4045 2.5167,-3.6428 0.1485,-0.2384 0.7996,0.096 1.4468,0.7434 0.9023,0.9023 0.561,1.8196 -1.4636,3.9333 -2.9959,3.1277 -6.1071,9.8641 -5.2193,11.3006 0.9823,1.5895 -0.1098,1.0747 -1.8875,-0.8897 z m 38.8603,-7.1543 c 0.9955,-1.1 2.1902,-2 2.655,-2 1.4981,0 0.8975,2.7659 -0.7368,3.393 -2.9836,1.145 -3.7267,0.6054 -1.9182,-1.393 z m 8.5062,-59.095 c -0.01,-4.2112 -2.7524,-7.3233 -5.5223,-6.2604 -1.4802,0.568 -1.7031,0.3017 -1.2376,-1.4783 0.3609,-1.3804 0.01,-2.4839 -0.9677,-3.0303 -1.0694,-0.5984 -1.1908,-1.0722 -0.4002,-1.5608 0.6244,-0.3859 2.4391,0.2268 4.0328,1.3616 3.2778,2.334 5.1665,2.5855 6.8409,0.9111 0.8695,-0.8695 1.4491,-0.5005 2.3625,1.5042 1.3773,3.023 0.6091,4.4934 -1.4534,2.7817 -1.126,-0.9345 -1.3058,-0.7255 -0.955,1.1097 0.2377,1.2436 -0.2711,3.61 -1.1308,5.2588 l -1.5631,2.9977 -0.01,-3.595 z m 28.29999,-62.6038 c -1.7035,-0.6141 -3.7447,-7.2627 -2.5855,-8.4219 1.2798,-1.2798 6.2793,2.7575 6.2793,5.0709 0,2.1367 -2.0082,3.9585 -3.6938,3.351 z m 36.7433,-21.4784 c -1.1156,-1.1975 -1.8467,-2.3589 -1.6246,-2.581 0.7137,-0.7137 4.3201,1.6514 4.9261,3.2304 0.8537,2.2248 -0.9553,1.8689 -3.3015,-0.6494 z m -114.36659,170.3793 c -1.6041,-1.7725 -1.5869,-1.979 0.309,-3.6948 2.5646,-2.3208 2.8917,-5.4834 0.3496,-3.3797 -2.3311,1.9291 -5.29341,8.8082 -5.31951,12.3532 l -0.022,2.9808 3.19101,-3.191 c 3.0318,-3.0318 3.1062,-3.2847 1.4919,-5.0685 z m 55.4884,-27.8571 c 2.3417,-2.1193 2.3101,-3.5993 -0.1241,-5.8022 -1.8893,-1.7099 -1.9736,-1.6743 -2.5929,1.095 -0.3521,1.5742 -0.8537,3.6497 -1.1146,4.6122 -0.6007,2.2157 1.4326,2.2661 3.8316,0.095 z m -6.7889,-11.9576 -0.6557,-2.6126 2.6678,1.7481 c 3.1081,2.0364 4.56,1.2352 2.8176,-1.5548 -0.6666,-1.0675 -1.2121,-2.6221 -1.2121,-3.4545 0,-2.1656 -1.0027,-1.8852 -4.1953,1.1735 -3.2364,3.1007 -3.5232,4.7951 -1.0547,6.2328 2.3911,1.3927 2.3712,1.4113 1.6324,-1.5325 z m -2.3519,-5.4443 c 1.47,-2.7469 -0.8427,-3.5754 -3.2527,-1.1653 -2.1761,2.1761 -1.6657,4.5002 0.782,3.5609 0.8227,-0.3157 1.9345,-1.3937 2.4707,-2.3956 z m 46.54299,-4.2579 c -2.9147,-3.8213 -3.2667,-5.6852 -1.0735,-5.6852 2.3868,0 1.7503,-1.6856 -1.5142,-4.0101 l -3.0142,-2.1463 1.1766,2.5824 c 1.3445,2.9509 0.2133,4.9714 -1.2847,2.2947 -1.4983,-2.6775 -2.8635,-1.071 -2.8635,3.3697 0,4.2403 2.379,6.428 4.138,3.8053 0.7423,-1.1068 1.49,-0.7001 3.6123,1.9646 3.4507,4.3328 4.2255,2.2856 0.8232,-2.1751 z m -66.23279,-12.6511 c -0.1895,-3.8681 -1.5816,-5.5394 -3.8796,-4.6575 -1.2607,0.4838 -1.504,1.3163 -0.9868,3.3771 1.4902,5.9373 5.1415,6.898 4.8664,1.2804 z m 69.65929,-48.4751 c 0,-0.7925 -0.359,-1.6628 -0.7977,-1.934 -1.2793,-0.7906 -3.5252,1.0435 -2.7714,2.2632 0.9922,1.6054 3.5691,1.3678 3.5691,-0.3292 z m 21.7057,-11.5766 c -0.2902,-1.1097 0.1394,-2.6847 0.9548,-3.5 1.7363,-1.7364 0.1644,-1.9942 -2.7262,-0.4472 -2.168,1.1603 -2.6027,4.5284 -0.6843,5.3025 2.3994,0.9682 2.9795,0.648 2.4557,-1.3553 z m -82.74559,-11.5304 c -1.3654,-1.6453 -4.9601,-1.9728 -4.9601,-0.452 0,1.8789 0.4407,2.5001 1.587,2.2368 0.6304,-0.1447 1.7687,0.4878 2.5296,1.4057 1.29,1.5563 1.4058,1.554 1.716,-0.035 0.1829,-0.937 -0.2097,-2.3571 -0.8725,-3.1557 z m 71.61349,-1.8659 c 1.1103,-0.7776 3.3479,-1.5651 4.9725,-1.75 5.4906,-0.6247 9.6344,-13.6784 4.9168,-15.4887 -0.8661,-0.3323 -3.1308,0.9268 -5.4731,3.0428 -4.409,3.9833 -4.2965,3.9484 -11.7398,3.6415 l -5.25,-0.2165 0,3.4576 c 0,7.1046 7.0321,11.1947 12.5736,7.3133 z m 18.3912,-1.5203 c 1.504,-2.8102 1.3451,-9.3342 -0.2148,-8.822 -0.6875,0.2257 -1.4015,1.7257 -1.5868,3.3333 -0.1852,1.6076 -0.9976,3.2967 -1.8054,3.7536 -1.1461,0.6483 -1.2099,1.1425 -0.2908,2.25 1.598,1.9255 2.6674,1.7842 3.8978,-0.5149 z m -80.96479,-0.8658 c 0,-0.44 -0.5484,-1.3484 -1.2187,-2.0187 -0.9584,-0.9584 -0.4776,-1.0772 2.25,-0.556 l 3.4687,0.6628 -2.1834,-2.394 c -1.2009,-1.3168 -2.6436,-3.6089 -3.2061,-5.0937 -0.7698,-2.0321 -2.0845,-2.9716 -5.3166,-3.7994 -6.2552,-1.602 -7.1518,-1.9764 -6.4397,-2.6886 0.9363,-0.9362 8.6238,-0.4747 12.2993,0.7383 3.5149,1.16 5.0059,3.4823 2.7834,4.3352 -3.1067,1.1921 -1.3301,2.7214 2.8131,2.4216 3.764,-0.2723 4.2852,-0.6115 4.5576,-2.9658 0.2598,-2.2454 -0.533,-3.2162 -5.1035,-6.25 -2.9761,-1.9754 -5.9013,-3.5917 -6.5004,-3.5917 -0.5992,0 -2.6991,-0.9497 -4.6665,-2.1105 -2.9117,-1.718 -4.4501,-1.9797 -8.2697,-1.4069 -11.2421,1.6859 -17.6653,7.1262 -17.1321,14.5105 0.2177,3.0155 -0.2708,4.5222 -2.0964,6.4654 -1.3091,1.3935 -2.099,2.8148 -1.7553,3.1585 0.9323,0.9323 11.5866,-0.5981 12.3098,-1.7682 0.3437,-0.5562 -0.5492,-2.2369 -1.9843,-3.7348 -3.2547,-3.3972 -3.3086,-4.3304 -0.1812,-3.1414 1.3353,0.5077 5.4978,0.6771 9.25,0.3764 6.5419,-0.5243 12.322,0.618 12.322,2.4351 0,0.4585 -0.6476,1.7072 -1.4391,2.7748 -1.2152,1.6392 -1.7525,1.7499 -3.4536,0.7116 -1.9344,-1.1806 -4.1615,0.01 -2.7185,1.4517 1.3927,1.3926 11.6112,2.6932 11.6112,1.4778 z m -24,-15.2 c 0,-0.55 0.9,-1 2,-1 1.1,0 2,0.45 2,1 0,0.55 -0.9,1 -2,1 -1.1,0 -2,-0.45 -2,-1 z m 9.0201,11.4758 c 0.6957,-0.8382 1.0097,-1.7793 0.6978,-2.0913 -0.9285,-0.9284 -4.4891,0.5768 -5.0941,2.1536 -0.7616,1.9846 2.7387,1.935 4.3963,-0.062 z"
             style="fill:#000000" />
        </g>
      </g>
      <path
         style="fill:#699561;fill-opacity:1;fill-rule:evenodd;stroke:#000000;stroke-width:3;stroke-linecap:butt;stroke-linejoin:miter;stroke-miterlimit:4;stroke-dasharray:none;stroke-opacity:1"
         d="m 1429.2186,532.17503 c 3.8298,-46.49032 0.7012,-93.34283 1.7282,-139.98392 -2.4656,-31.86129 -39.1376,-37.04444 -52.5314,-29.80049 23.6214,-30.05613 -4.8497,-65.61295 -21.0386,-92.57327 -21.177,-10.70909 -10.4059,-35.25285 -12.8399,-54.18733 -0.027,-24.02777 2.1078,-47.01268 -8.6409,-68.84283 0.7045,-19.31309 -29.6749,-58.132759 -27.6343,-55.268453 -14.3412,17.408233 -6.9641,83.393873 -33.0743,71.912563 -27.4537,-30.45486 -26.6051,-76.462889 -57.0652,-104.630487 -15.1009,-12.172382 -19.7619,-70.030166 -34.0948,-26.41039 -4.6085,15.894917 -0.8849,84.259417 -18.7605,40.529174 -8.2686,-18.845101 -40.7399,-47.482125 -37.1317,-7.250966 -12.5623,35.968099 35.633,51.579769 9.2896,83.809279 -5.4686,32.47223 5.0183,64.16351 -0.2708,97.22818 5.5611,32.61287 -44.2608,67.84643 -14.7869,101.43168 -6.6647,24.43137 21.0605,77.40276 9.4508,81.92256 -23.8454,-0.58932 -46.1213,-22.80391 -65.4207,-25.80215 -11.7078,42.49487 47.3723,43.74151 51.9398,82.40153 1.8213,26.73414 -50.0513,5.70947 -42.0669,44.80761 8.6686,32.73524 52.3713,47.70949 70.567,65.41688 22.7482,11.38184 49.5145,-25.87334 55.7673,5.50791 33.7091,19.48017 72.0668,10.29476 102.7726,-6.2695 27.103,-4.922 56.7236,21.25191 65.6356,-18.02068 10.1725,-18.54217 41.004,-7.89616 42.9465,-33.52652 9.6212,3.76719 10.9609,-7.03743 15.2595,-12.40038 z"
         id="path11733" />
      <path
         style="fill:#699561;fill-opacity:1;fill-rule:evenodd;stroke:#000000;stroke-width:3;stroke-linecap:butt;stroke-linejoin:miter;stroke-miterlimit:4;stroke-dasharray:none;stroke-opacity:1"
         d="m 1306.5166,644.50781 c 4.2159,-39.4181 -17.2089,-75.69355 -27.7249,-112.62974 -6.2205,-40.63877 -65.2431,-34.41335 -43.145,-78.84158 4.8515,-29.96909 -7.9049,-71.03402 -26.2273,-100.93238 -14.3863,-11.55955 -15.1451,-63.78487 -21.9369,-19.81272 -15.5017,1.72248 -36.1128,-54.70777 -69.4769,-48.33139 -48.7472,12.47519 -32.1068,-43.25978 -61.4868,-65.56072 -12.6668,27.56981 -0.048,81.38925 23.1987,109.46029 -6.2562,20.96902 17.9114,47.47107 7.3181,62.60334 -31.4989,-1.56328 -37.497,14.17257 -29.8762,43.6083 14.111,24.55699 -13.0985,107.49072 -35.933,55.73833 -9.8148,-18.87963 -9.5217,-70.18816 -26.90208,-71.82791 -3.4303,32.13131 -21.3356,52.58207 -41.16092,25.2106 -15.06571,18.10909 -7.92817,-80.9001 -42.20273,-45.49568 -57.95639,18.96084 -1.2461,88.12925 5.6363,126.37993 -29.57089,12.11417 -103.52658,7.6737 -76.69343,63.40083 -17.32754,22.83114 -57.46812,-31.08905 -66.01763,-52.24694 -24.58753,-27.73502 -61.1919,-63.99828 -32.6429,-102.23076 5.69204,-29.86361 -15.68397,-55.97932 -15.86201,-86.77987 -42.69827,-22.73419 -69.80285,52.60718 -38.72244,79.10163 22.32001,35.59215 -0.83397,80.37699 8.05818,119.8624 -14.80707,38.59875 11.1545,70.19605 40.33293,96.03564 3.55684,63.06529 74.88678,21.71225 110.61123,41.48967 46.07893,24.73302 92.10702,-54.00289 127.27556,-1.85014 26.57566,43.8634 70.97214,24.13715 107.80874,11.65999 32.4767,11.61994 72.8053,39.9564 107.0823,18.64176 24.0682,-19.62287 66.4135,1.85372 72.0278,-39.00175 21.5506,-4.03033 36.9009,-11.72528 46.6613,-27.65113 z"
         id="path11737" />
      <path
         style="fill:#699561;fill-opacity:1;fill-rule:evenodd;stroke:#000000;stroke-width:3;stroke-linecap:butt;stroke-linejoin:miter;stroke-miterlimit:4;stroke-dasharray:none;stroke-opacity:1"
         d="m 1111.2304,744.74321 c -16.9692,-2.72877 -28.4527,-19.07232 -44.3551,-25.16739 -14.8402,-11.41644 -29.1158,-26.82017 -26.6696,-47.06782 5.4491,-17.77806 29.8059,-20.02915 34.5741,-39.41126 4.0504,-18.21514 3.4302,-38.59992 -4.6277,-55.85489 -2.1095,-20.02269 24.6618,-15.88394 35.075,-21.45058 11.8783,-4.13607 26.2443,-10.99373 21.4668,8.32422 1.9993,19.17597 -8.6869,34.67396 -10.7745,53.97337 -8.7228,21.103 13.1845,29.21812 31.5917,23.82784 23.7618,-3.5624 26.6958,-29.04861 26.0361,-48.66937 -0.9692,-11.76057 4.3517,-22.69697 12.6503,-7.84055 7.406,15.93555 22.3906,30.14998 15.3194,48.98005 -8.6642,19.19802 19.8829,31.54126 26.529,11.91857 10.8353,-6.03553 10.9666,20.87721 21.4888,25.53288 4.2405,5.67502 7.1934,17.42098 12.708,27.53289 5.9816,9.97205 29.6863,-0.2522 36.7447,13.60554 8.018,16.11383 -1.3236,20.22113 0.5918,31.54626 -12.2347,5.83234 -28.2493,10.13668 -42.9165,12.13691 -8.3105,-0.16302 -16.0665,4.80617 -16.514,-3.02128 -11.4506,-12.2024 -29.4994,-10.94643 -44.4789,-15.54774 -10.4648,-4.42514 -9.2555,13.92059 -20.9784,6.85544 -7.215,9.34277 -33.2906,4.35651 -35.8951,12.68842 -11.3622,4.58687 -19.2573,7.48826 -20.433,-1.58475 3.9457,2.73038 -6.4452,-8.46418 -2.9404,-4.59608 -1.9721,-1.7926 -3.6667,-4.00393 -4.1925,-6.71068 z"
         id="path11755" />
      <path
         style="opacity:0.17399998;fill:#77a6eb;fill-opacity:1;fill-rule:evenodd;stroke:#000000;stroke-width:3;stroke-linecap:round;stroke-linejoin:round;stroke-miterlimit:4;stroke-dasharray:none;stroke-opacity:1"
         d="m 233.25825,-172.85743 -2.45535,947.76508 29.4642,63.8391 1286.6034,-46.6516 93.3032,-960.04189 c -470.7823,-4.34983 -994.58475,-2.2841 -1406.91545,-4.91069 z"
         id="path11695" />
      <path
         style="fill:#ba8b73;fill-opacity:1;fill-rule:evenodd;stroke:#000000;stroke-width:3;stroke-linecap:round;stroke-linejoin:round;stroke-miterlimit:4;stroke-dasharray:none;stroke-opacity:1"
         d="m 166.9638,-207.23233 -24.5535,351.11504 -14.7321,655.57844 2.45535,252.90115 22.09815,12.2767 88.3926,-9.8214 12.27675,-9.8214 7.36605,-9.8214 -2.45535,-54.01775 7.36605,-14.7321 19.6428,-17.1874 27.00885,-19.6428 24.5535,-4.9107 c 0,0 346.20435,-12.2768 356.02575,-12.2768 9.8214,0 142.4103,-14.7321 142.4103,-14.7321 l 341.2936,-14.7321 223.4369,0 110.4907,-9.8214 41.741,49.107 7.366,66.2945 125.2229,-14.7321 0,-176.7852 2.4553,-257.81179 2.4554,-272.54385 -14.7321,-348.659698 -12.2768,-135.044242 -34.3749,4.9107 -29.4642,12.27675 -7.366,17.18745 -4.9107,41.74095 -29.4642,685.04264 -9.8214,179.24055 -24.5535,22.09815 -9.8214,22.09819 -29.4642,14.7321 -1171.20195,41.7409 -24.5535,-17.1874 -19.6428,-19.6428 -9.8214,-22.09819 -24.5535,-918.30089 4.9107,-44.1963 -17.18745,-27.00885 -22.09815,4.9107 z"
         id="path11683" />
      <path
         style="opacity:0.13300003;fill:#ffffff;fill-opacity:1;stroke:none;stroke-width:3;stroke-linecap:round;stroke-linejoin:round;stroke-miterlimit:4;stroke-dasharray:none;stroke-opacity:1"
         id="path11759"
         d="m 357.17389,411.64944 c 10.2319,-16.65835 24.50129,-30.29242 37.93004,-44.31199 51.72387,-51.60993 107.43574,-98.94422 163.51386,-145.69998 37.41013,-30.86093 75.98393,-60.39348 116.67765,-86.8163 22.52835,-14.62788 31.82336,-19.4268 57.74917,-34.42268 4.46632,-2.413696 19.04163,-10.437047 24.70035,-13.027245 1.69673,-0.776654 8.99506,-4.366501 12.12263,-2.963306 3.76318,1.688358 2.50771,6.588487 2.49471,9.344512 -0.71607,2.522592 -1.27497,5.095188 -2.1482,7.567779 -4.36713,12.36571 -10.9204,23.99288 -17.19216,35.44592 -8.58321,15.67406 -9.19323,16.44904 -18.41512,32.19855 -3.49013,5.76063 -6.93872,11.54665 -10.47039,17.28191 -9.67544,15.71242 -13.11097,20.52028 -22.58843,36.68842 -11.0582,18.86482 -21.07959,38.23495 -30.96167,57.72997 -10.31894,21.68459 -19.80366,43.85516 -26.6986,66.88595 -2.69388,12.10065 3.95483,5.6059 -22.45491,14.5536 -1.53218,0.5191 2.44815,-2.12771 3.53035,-3.33015 3.72975,-4.14419 9.87315,-12.4128 12.92614,-16.40656 30.76413,-40.65684 63.79912,-79.52671 97.20324,-118.01993 27.46924,-31.61288 56.00891,-62.26209 84.60023,-92.8545 12.86206,-14.10783 23.56634,-23.87312 42.30246,-31.548018 1.11576,-0.457049 1.46582,1.914838 2.19873,2.872258 0.0863,1.89343 0.44944,3.7945 0.25886,5.68029 -0.58295,5.76836 -4.37848,21.12727 -5.46704,25.3259 -6.67736,25.75492 -15.51568,49.94036 -24.66744,74.90405 -28.65787,73.50528 -65.16811,143.62451 -101.11692,213.75049 -25.46174,49.72624 -50.61021,99.68828 -71.43424,151.56514 -3.02938,8.62831 -6.76886,17.08664 -9.23869,25.9144 -0.23574,0.84257 -0.006,1.8355 -0.45779,2.58455 -0.26282,0.43542 0.28111,-1.7098 -0.18834,-1.51412 -7.0399,2.93453 -13.67366,6.7615 -20.51049,10.14225 16.04974,-19.48013 32.8072,-38.35234 50.58548,-56.28055 7.19863,-7.25934 14.57152,-14.34379 21.85728,-21.51569 8.38857,-8.04221 16.75182,-16.11091 25.16569,-24.12664 28.71119,-27.35256 28.24271,-26.32688 57.36536,-55.15667 10.59253,-10.48602 21.02003,-21.13747 31.54929,-31.68702 10.96109,-10.98223 21.94781,-21.93885 32.92172,-32.90828 11.35387,-11.37929 22.70775,-22.75859 34.06162,-34.13788 56.4123,-57.68072 113.19848,-115.06317 173.04328,-169.21821 11.2769,-10.20471 22.8276,-20.1026 34.2414,-30.15389 45.3541,-38.30547 92.0408,-75.518851 142.6249,-106.77909 6.698,-4.13925 13.5883,-7.95884 20.3824,-11.93826 19.4682,-11.431475 39.2623,-22.353182 60.1002,-31.0749327 1.2272,-0.513654 10.0922,-4.1918856 12.4935,-4.4281018 0.9776,-0.09617 1.9022,0.4916946 2.8532,0.7375419 0.3993,0.9907481 1.2429,1.905006 1.1979,2.9722444 -0.1914,4.5427802 -7.9217,15.3881132 -9.9755,18.7934972 -1.9745,3.273635 -3.8799,6.588369 -5.8198,9.882554 -2.4673,4.045194 -4.9345,8.090389 -7.4018,12.135583 -21.0333,36.106467 -42.2761,72.086524 -63.0729,108.330864 -27.6503,47.65784 -52.178,97.02324 -77.0266,146.17158 -17.9633,36.89028 -36.7392,73.39114 -52.2139,111.42073 -5.336,13.33659 -11.1396,26.57184 -14.0046,40.70723 -0.056,0.59598 0.065,2.33868 -0.1692,1.78794 -4.2479,-9.97107 24.1064,-3.58441 -19.2994,7.03222 -2.7526,0.67325 3.6435,-4.34364 5.364,-6.59525 2.1284,-2.78531 17.6397,-24.20839 18.1051,-24.84974 37.1791,-49.49448 76.5802,-97.27868 116.0952,-144.91355 30.2751,-36.71339 61.1882,-72.89605 91.3626,-109.69347 9.3325,-11.04963 17.4802,-20.05982 34.7801,-20.56385 2.8777,-0.0838 -0.2987,5.77372 -0.8954,8.59008 -1.7929,8.46203 -7.147,22.98392 -9.6853,30.35988 -22.2772,62.22243 -52.0916,121.32469 -80.7857,180.74224 -30.1163,61.98332 -61.7075,123.25124 -93.5223,184.37833 -12.6473,26.34161 -27.8673,51.59219 -38.7791,78.75532 0.5825,7.98576 0.4626,4.34757 -21.173,9.06161 -2.1882,0.47676 3.0601,-3.27238 4.5209,-4.96981 8.5943,-9.98637 16.7143,-20.32774 24.7586,-30.75771 4.176,-5.29515 8.4143,-10.54171 12.5279,-15.88546 14.5178,-18.85942 28.4957,-38.09554 43.5034,-56.58032 12.6369,-15.56472 18.1501,-21.65415 31.1955,-36.65539 23.0133,-24.49554 48.0635,-47.13855 75.2081,-66.97508 10.5709,-7.02101 16.7776,-11.43876 31.2689,-17.00505 1.228,-0.47171 2.5867,1.04248 3.3189,2.13545 3.5333,5.27474 1.4903,17.04203 1.0766,22.65073 -2.8649,27.42033 -8.0066,54.49505 -13.2927,81.52574 -1.9084,13.02438 -5.5628,25.77057 -7.423,38.79789 0.015,0.18536 0.074,0.73982 0.045,0.55607 -1.5655,-10.03733 2.2106,-2.89256 -20.9063,9.26584 -0.8839,0.46491 1.5348,-1.27852 2.3051,-1.91416 5.3131,-4.38397 2.8733,-2.42294 9.2371,-7.2458 26.0156,-18.68126 54.0073,-34.32778 81.7782,-50.18213 7.7639,-4.11109 15.5378,-8.17756 23.4984,-11.89326 0.8345,-0.38949 6.5521,-3.23855 8.1101,-3.30235 0.9885,-0.0405 1.8842,0.60424 2.8263,0.90636 0.6736,0.74696 1.5614,1.34605 2.0208,2.24087 2.8,5.45436 -1.0932,12.39167 -2.8815,17.47602 -0.6916,1.96622 -1.3501,3.94396 -2.0251,5.91594 -4.1714,11.46357 -7.3498,23.24151 -11.0824,34.85269 -1.0802,3.35821 -2.0036,6.76369 -3.1028,10.11567 0,0 -23.5308,10.46483 -23.5308,10.46483 l 0,0 c 2.4702,-2.59802 2.4213,-6.82479 3.964,-9.91768 3.8584,-11.62009 7.2567,-23.36549 11.2478,-34.93448 2.4004,-7.63258 1.1573,-3.94047 3.6386,-10.90299 0.8598,-2.41258 3.271,-6.94405 1.9892,-9.73327 -0.208,-0.45271 -0.7665,-0.63666 -1.1497,-0.95499 -3.4125,0.0808 -6.342,1.78265 -9.4067,3.20243 -7.6982,3.5664 -15.2182,7.48782 -22.7073,11.47243 3.2974,-1.97685 13.3269,-7.65729 9.892,-5.93056 -3.9176,1.96937 -7.5927,4.38927 -11.3435,6.66025 -13.1775,7.97852 -26.1525,16.32206 -38.6953,25.26814 -1.8097,1.37134 -6.7338,5.02446 -8.7468,6.79562 -7.1349,6.27763 -21.0244,22.58405 -27.7733,14.19418 -0.2688,-0.33419 -0.089,-0.85321 -0.1331,-1.27981 2.641,-13.28824 6.8652,-26.26809 9.0491,-39.66535 0.4514,-2.18493 5.2426,-25.33764 5.5568,-27.02463 3.3225,-17.84304 5.6197,-35.86883 7.3279,-53.93221 0.2526,-5.27342 0.7771,-10.88526 0.2212,-16.19909 -0.1225,-1.17156 -0.1653,-2.46748 -0.8411,-3.43228 -0.4167,-0.59494 -2.6369,-0.26815 -2.0603,-0.70984 5.4641,-4.18513 11.6424,-7.34476 17.4331,-11.06479 2.0363,-1.30812 -4.1128,2.5525 -6.1692,3.82875 -28.1495,19.60209 -53.8661,42.57045 -77.5491,67.35 -13.0504,14.86259 -18.8322,21.16974 -31.401,36.62526 -14.8833,18.30158 -28.6162,37.40468 -42.777,56.25267 -3.9462,5.25248 -8.0113,10.41463 -12.017,15.62195 -15.3798,21.05561 -3.6907,5.49365 -17.3244,22.72289 -1.9618,2.47909 -3.8411,5.02253 -5.7954,7.50746 -1.2842,1.63282 -2.1439,3.76685 -3.9195,4.84501 -8.0621,4.89535 -16.5918,9.01775 -25.2127,12.84427 -0.5129,0.22766 0.043,-1.12144 0.065,-1.68217 3.7076,-7.16784 1.564,-2.95289 6.3586,-12.68136 11.6935,-22.8212 24.3645,-45.13726 36.1647,-67.90259 14.972,-28.09919 29.5871,-56.37287 44.3092,-84.60339 17.3276,-33.22698 34.7296,-66.42277 50.6669,-100.35093 28.0743,-58.68962 57.55,-117.04774 77.7842,-179.0477 4.6368,-14.98483 5.1861,-15.5226 8.2326,-29.1895 0.4674,-2.0966 -0.4409,-4.91191 1.1656,-6.33788 6.1429,-5.45268 13.7725,-8.96185 20.8213,-13.1786 4.7729,-2.85528 -24.9263,16.88108 -12.1549,11.4307 -31.5875,36.93524 -63.4488,73.64162 -94.5117,111.02113 -39.0154,46.91409 -77.7758,94.1275 -113.5068,143.61946 -5.5609,8.08556 -11.0329,16.23213 -16.6166,24.30194 -1.5125,2.18596 -2.5285,4.86584 -4.6313,6.492 -1.0544,0.81543 -22.1312,22.31197 -26.8844,14.13622 -0.3638,-0.62574 0.1621,-1.4385 0.2431,-2.15775 3.5881,-14.51776 9.4735,-28.21101 15.4936,-41.87375 16.2826,-38.39636 36.0419,-75.12406 54.3384,-112.57309 24.794,-48.97122 49.0882,-98.2494 76.2786,-145.95304 20.3783,-35.97452 41.4224,-71.566579 61.5244,-107.696181 27.2098,-46.2609661 -10.1433,17.43105 12.5115,-21.725348 1.5446,-2.669763 3.2532,-5.243605 4.7627,-7.933401 1.0656,-1.898922 1.8864,-3.928815 2.958,-5.824399 1.3189,-2.332991 1.1936,-2.151899 2.3899,-3.197653 -4.3815,-0.165114 -9.4589,2.397111 -13.3277,3.979719 -3.2594,1.33331 -6.5078,2.696902 -9.7128,4.155935 -4.3593,1.984487 -8.4893,4.495984 -12.976,6.172636 -0.8631,0.322536 1.2535,-1.35083 1.8802,-2.026246 -7.0305,4.036695 -14.1611,7.903802 -21.0914,12.110085 -51.6355,31.339496 -99.2561,68.899273 -145.4937,107.602083 -11.5135,10.07406 -23.1753,19.98097 -34.5403,30.22219 -59.974,54.04359 -116.79802,111.42766 -173.15589,169.18816 -22.1277,22.28124 -44.32066,44.49768 -66.41944,66.8076 -29.0152,29.29242 -31.40062,32.28404 -60.31497,60.39966 -8.93519,8.68835 -18.04961,17.19067 -27.02359,25.83895 -8.20439,7.90662 -16.34071,15.88355 -24.51107,23.82533 -14.6222,14.64232 -24.58121,24.19122 -38.16336,39.27505 -4.24212,4.71115 -8.22375,9.6505 -12.32221,14.48714 -6.11525,7.21666 -12.34203,14.37803 -17.66153,22.22074 -8.12782,4.69611 -15.89934,10.07154 -24.38346,14.08832 -0.70242,0.33256 -1.25384,-1.13991 -1.33268,-1.91307 -0.1085,-1.06395 0.47024,-2.0913 0.8213,-3.1015 0.6955,-2.00134 1.53681,-3.94901 2.31387,-5.92012 4.65313,-11.80318 2.89377,-7.388 8.5871,-20.8983 22.61995,-52.21714 48.76339,-102.7891 74.87991,-153.32133 36.02129,-69.58864 72.25245,-139.40708 99.83569,-212.87289 3.37336,-9.6829 6.93856,-19.30108 10.12008,-29.04869 5.37591,-16.47083 8.5727,-27.9699 12.24264,-44.44555 1.77297,-7.95946 3.27607,-15.94328 4.13325,-24.05127 0.13884,-1.31328 0.0938,-2.63952 0.14064,-3.95928 -6.78279,-4.16792 -0.81866,-0.39209 19.44117,-11.90721 1.06551,-0.60561 -1.98384,1.44116 -2.94121,2.20637 -6.13716,4.90529 -11.79529,10.3795 -17.1673,16.1054 -29.71859,30.65581 -59.10048,61.65084 -87.18084,93.82642 -32.82739,37.80118 -65.40259,75.94413 -94.55006,116.70146 -9.5088,13.19691 -3.7467,5.27378 -11.73313,16.12665 -0.93538,1.27109 -1.41739,3.05571 -2.79893,3.81856 -21.73808,12.00316 -27.60903,19.75296 -24.01893,5.34799 8.09112,-23.38226 18.21988,-46.011 28.89451,-68.31333 10.01712,-19.51663 20.11573,-38.96552 31.10105,-57.96256 11.58031,-20.02599 10.4826,-17.29835 22.26861,-36.55021 3.48775,-5.69707 6.88058,-11.45171 10.32088,-17.17757 8.76319,-15.11871 17.41586,-30.24159 25.17565,-45.90868 3.61392,-7.29652 6.24059,-12.83179 8.89673,-20.391 0.79365,-2.2587 1.36008,-4.59093 2.04013,-6.8864 0.23478,-1.8787 1.41062,-5.266997 -0.44086,-5.66281 -2.89742,-0.619416 -8.92882,2.29767 -10.52465,3.02386 -6.20268,2.82257 -18.08419,9.30976 -23.4182,12.15347 7.6093,-5.79041 5.43185,-4.08275 -20.97735,12.7501 -41.48405,26.44134 -80.76511,56.1655 -118.7394,87.40266 -55.08499,45.92218 -109.73186,92.53631 -159.85648,143.9273 -7.25006,7.86064 -14.78079,15.47223 -21.73732,23.59379 -2.07597,2.42364 -3.92571,5.03243 -5.86096,7.56986 -1.34994,1.76998 -4.96864,6.53796 -6.35107,8.82791 -0.53433,0.88512 -0.92553,1.8491 -1.38829,2.77366 0,0 -23.51774,10.28979 -23.51774,10.28979 z" />
      <path
         style="opacity:0.13300003;fill:#ffffff;fill-opacity:1;stroke:none;stroke-width:3;stroke-linecap:round;stroke-linejoin:round;stroke-miterlimit:4;stroke-dasharray:none;stroke-opacity:1"
         id="path11761"
         d="m 46.752794,32.92353 c -10.083502,15.403983 -22.388696,29.066508 -34.649702,42.7286 -8.1250963,9.035826 -16.0528169,18.245873 -23.979063,27.45564 -1.181372,1.37267 -9.30024,10.72308 -10.86996,12.89388 -0.915966,1.26671 -1.575606,2.7003 -2.363409,4.05045 0.03181,0.56354 -0.422855,1.46705 0.09542,1.69061 0.560665,0.24183 1.010629,-0.6889 1.545946,-0.98262 3.08874,-1.69469 12.379564,-6.73256 9.310929,-5.00173 -17.815591,10.04871 -17.309162,9.96173 -4.477667,1.82655 16.4897124,-10.72118 32.75275,-21.78358 49.323485,-32.380508 9.165092,-5.71302 17.762288,-11.147631 27.879277,-16.028354 1.20593,-0.581775 2.059655,2.300222 1.295899,4.838315 -0.373296,1.240523 -1.286867,2.248886 -1.94743,3.363293 -0.953245,1.60818 -1.929212,3.202782 -2.893818,4.804172 -10.02259,17.741605 -17.865155,36.613092 -25.593139,55.434982 -7.270496,18.29735 -14.959199,36.42617 -21.4262164,55.0298 -0.6800119,3.14224 -2.3171688,6.13131 -2.8534517,9.31976 -0.012906,0.0767 0.1501514,0.0409 0.2252272,0.0613 0.271928,-0.68621 1.4927901,-2.3527 0.8157839,-2.05862 -6.39482753,2.77785 -12.3386953,6.49598 -18.508043,9.74396 11.44722589,-11.33481 22.3036012,-23.28878 32.902301,-35.42167 11.726392,-13.32253 13.671618,-16.62962 34.379865,-25.60175 1.00568,-0.43573 1.69151,1.5452 2.02768,2.58839 0.460751,1.42978 0.170893,2.99951 0.256339,4.49926 -0.762989,5.53356 -1.242147,9.70467 -2.50567,15.3125 -4.605858,20.44193 -11.199218,40.48955 -17.865409,60.32382 -14.091378,38.81453 -29.8123185,77.00318 -44.2644737,115.67966 -4.5057063,12.65504 -8.7660883,25.39754 -12.5698073,38.28182 -1.160445,3.93076 -3.271414,8.935 -2.443225,13.20534 2.33474,-9.38562 0.322263,0.75373 -19.20904,8.39871 -1.715244,0.67138 2.544353,-2.66757 3.728198,-4.07872 5.811146,-6.9269 10.9806,-14.44624 16.272765,-21.76395 16.4199522,-23.78404 36.756219,-44.28174 56.903837,-64.84409 16.836466,-17.10198 31.492193,-36.09527 46.726502,-54.57732 3.348917,-4.08244 6.454532,-8.35737 9.930674,-12.33517 0.592664,-0.6782 1.219042,-1.3262 1.822755,-1.99458 0.248535,-0.27516 0.387589,-0.7034 0.733887,-0.83591 7.58427,-2.90209 15.28862,-5.48008 22.93293,-8.22013 -4.96373,12.55943 -8.70969,25.57147 -12.44191,38.53923 -7.092054,26.04107 -17.313769,51.03099 -26.780439,76.25779 -8.908469,23.5343 -18.784417,46.66563 -28.991788,69.65821 -4.751473,11.3605 -10.426846,22.33412 -14.919844,33.80234 -1.591213,3.78001 -3.188034,7.55758 -4.780072,11.33776 -0.253943,0.80821 -3.629855,8.97521 -2.912583,9.33563 0.304467,0.15299 0.226731,-0.64267 0.340096,-0.964 0.343657,-0.33105 0.637907,-0.7226 1.030971,-0.99314 0.611826,-0.42111 2.603229,-1.43149 1.957786,-1.06398 -24.479685,13.9387 -24.248866,14.41433 -15.694464,8.51753 1.240399,-0.85504 2.489246,-1.6986 3.707049,-2.58553 1.102761,-0.80314 2.16869,-1.65568 3.253035,-2.48352 9.275982,-6.67582 19.575541,-12.11471 29.595732,-17.39251 1.414041,-0.74479 3.098183,-0.023 3.581325,1.50041 0.342454,1.07979 0.06268,2.26471 0.09402,3.39706 -6.800362,14.90571 -17.07305,27.97637 -26.370654,41.3811 -11.495145,17.25142 -23.5964975,34.14563 -34.1000583,52.03335 -0.858995,0.43818 -4.1876287,9.27036 -5.0980247,9.85654 -0.255092,0.16424 -0.02893,-0.97243 -0.30913,-0.85609 -7.389748,3.06832 -14.419331,6.95916 -21.804694,10.03802 -0.916954,0.38226 1.528651,-1.26923 2.292976,-1.90385 7.673266,-6.507 15.552908,-12.75782 23.263679,-19.21959 6.93379353,-6.2253 32.225248,-23.74577 34.571627,-20.94153 0.619914,0.74088 0.790303,1.76302 1.185455,2.64452 -0.316565,3.37979 -2.072103,6.71206 -4.010393,9.47586 0,0 -23.5095864,10.28696 -23.5095864,10.28696 l 0,0 c 0.28316162,-0.44647 0.516026,-0.92913 0.8494849,-1.33939 0.3433433,-0.42242 0.8781165,-0.68085 1.167376,-1.142 1.0336001,-1.64779 1.2808368,-3.87094 2.6527851,-5.36259 0.3385837,0.2905 0.848983,0.45772 1.0157513,0.8715 0.079571,0.19744 -0.339454,0.25694 -0.509181,0.3854 6.7034891,-3.91404 13.4069791,-7.82809 20.1104681,-11.74213 0.934783,-0.54441 -1.886081,1.06318 -2.791216,1.65557 -3.715101,2.43147 -4.005175,2.86691 -7.569986,5.85473 -7.6138649,6.34715 -15.29967192,12.59664 -22.863266,19.00433 -8.421922,7.68751 -5.127407,5.02752 -26.572617,14.13737 -0.517838,0.21998 -0.735749,-1.01384 -0.629072,-1.56626 0.12156,-0.62949 0.876518,-0.94579 1.218849,-1.48786 1.756391,-2.78121 2.953463,-5.89342 4.776352,-8.63521 10.762569,-17.99082 23.3104329,-34.85866 34.6760093,-52.46639 8.8731907,-12.99812 18.3386977,-25.70903 25.3503767,-39.85446 0.345182,-0.30922 0.653203,-0.66579 1.035544,-0.92768 0.06918,-0.0474 0.03138,0.2092 -0.04304,0.24785 -0.497784,0.25852 -2.055557,0.88173 -1.574987,0.59246 6.462322,-3.8898 13.035598,-7.59227 19.542305,-11.40737 1.951345,-1.14414 -8.683293,4.91364 -5.811551,3.50387 -10.798107,8.80451 -22.163709,14.78721 -34.6852061,21.7842 -0.7137424,0.39884 -1.4992341,0.70959 -2.3077796,0.83106 -0.6504282,0.0977 -1.3093865,-0.1262 -1.9640798,-0.1893 -0.6260248,-0.56932 -1.4445473,-0.98127 -1.8780743,-1.70796 -1.3657023,-2.28925 2.1466339,-7.96144 2.4897338,-10.41867 1.6619505,-3.81071 3.0493134,-7.73934 5.072468,-11.38385 4.590112,-11.72689 10.993029,-22.69191 15.783325,-34.34144 10.627357,-23.02803 20.998578,-46.17229 29.946275,-69.91898 9.259258,-25.02519 19.294095,-49.81279 26.036231,-75.68195 3.412147,-12.75779 6.819293,-25.57663 11.197135,-38.03305 8.047056,-4.03625 16.110016,-8.04097 24.141186,-12.10874 0.37662,-0.19076 -0.83741,0.22065 -1.17377,0.47579 -5.12177,3.88505 -8.32948,9.97015 -12.71258,14.5311 -6.574111,7.66796 -12.758023,15.64334 -19.283174,23.34884 -9.210334,10.87641 -18.762477,21.49072 -28.517952,31.87765 -10.921362,11.12663 -22.103589,22.0786 -32.415208,33.78392 -6.52181,7.40329 -10.997159,13.19563 -16.8860827,20.99423 -2.3438177,3.10388 -4.6255766,6.25414 -6.93836496,9.38121 -4.47790864,6.37897 -6.81800134,9.75473 -11.26307134,15.93582 -0.05312,0.0739 -6.815879,9.48094 -7.390619,9.87416 -7.821619,5.35122 -15.836794,10.51077 -24.345633,14.68366 -0.88004,0.43158 -1.683988,-1.00357 -2.525982,-1.50535 -0.106092,-0.86738 -0.403556,-1.73247 -0.318276,-2.60214 0.361523,-3.68675 2.468789,-9.11836 3.52456,-12.25919 4.39788,-13.08333 9.101414,-26.05488 13.852993,-39.01406 14.706473,-38.52073 30.473458,-76.63763 44.179464,-115.53864 7.902374,-24.06153 15.846086,-48.55584 18.452421,-73.85693 1.086971,-9.90185 -0.823176,-3.60523 19.833038,-14.54972 1.246217,-0.66029 -1.960883,2.02765 -2.931964,3.05042 -3.922034,4.13078 -4.215935,4.49511 -8.306824,8.96057 -10.560472,12.01215 -21.486837,23.69916 -32.275838,35.50361 -8.3338992,5.16385 -16.3348501,10.90844 -25.001697,15.49157 -1.808125,0.95615 -3.813106,-1.37602 -3.943966,-2.80547 -0.03387,-0.36992 1.754205,-5.15236 1.797378,-5.27329 0.530784,-1.48681 1.050817,-2.97744 1.576225,-4.46615 7.167999,-18.64279 15.04664024,-36.99613 22.3933455,-55.56824 7.4539965,-18.69128 15.1038035,-37.36515 24.3543225,-55.253246 0.872872,-1.560565 1.734532,-3.127455 2.618616,-4.681696 0.581846,-1.022897 0.927416,-2.237214 1.779001,-3.049412 0.395528,-0.377236 1.085031,-0.133055 1.627547,-0.199582 0.142173,0.221702 0.194804,0.790297 0.426518,0.665105 4.689681,-2.533777 29.335438,-17.337188 15.204473,-8.860294 -16.924355,10.48048 -33.395637,21.659094 -50.0076375,32.622845 -16.0561145,10.43243 -12.0892286,8.04665 -37.3295185,22.4484 -2.973999,1.69692 -10.830385,6.8881 -14.126876,2.25451 -0.637485,-0.89605 -0.260883,-2.18383 -0.391324,-3.27575 0.859921,-1.54314 1.546949,-3.19623 2.579763,-4.62943 1.212558,-1.68262 10.732677,-12.38258 11.434832,-13.18228 8.074777,-9.19644 16.05202,-18.478422 24.2197553,-27.59306 C 2.0229912,71.580177 14.155288,58.462967 23.350798,43.16269 c 0,0 23.401996,-10.23916 23.401996,-10.23916 z" />
    </g>
  </g>
</svg>
